<svg width="21" height="21" viewBox="0 0 21 21" fill="none" xmlns="http://www.w3.org/2000/svg">
<path d="M14.69 0.369141H6.31C2.67 0.369141 0.5 2.53914 0.5 6.17914V14.5491C0.5 18.1991 2.67 20.3691 6.31 20.3691H14.68C18.32 20.3691 20.49 18.1991 20.49 14.5591V6.17914C20.5 2.53914 18.33 0.369141 14.69 0.369141ZM14.56 9.53914L11.03 13.0691C10.88 13.2191 10.69 13.2891 10.5 13.2891C10.31 13.2891 10.12 13.2191 9.97 13.0691L6.44 9.53914C6.15 9.24914 6.15 8.76914 6.44 8.47914C6.73 8.18914 7.21 8.18914 7.5 8.47914L10.5 11.4791L13.5 8.47914C13.79 8.18914 14.27 8.18914 14.56 8.47914C14.85 8.76914 14.85 9.23914 14.56 9.53914Z" fill="#FF0000"/>
</svg>
