<svg width="38" height="49" viewBox="0 0 38 49" fill="none" xmlns="http://www.w3.org/2000/svg">
<path d="M14.1038 12.1439L19.8559 10.4596C20.556 10.2538 20.957 9.5193 20.7537 8.81684L19.0748 3.04641C18.7454 1.91348 17.2151 1.74543 16.6486 2.78017L12.5755 10.2349C12.0108 11.2696 12.9745 12.4743 14.1038 12.1439Z" fill="black"/>
<path d="M21.6846 8.54306C21.8898 9.24551 22.622 9.64769 23.3221 9.44374L29.7762 7.55363C30.9056 7.22323 31.0731 5.68807 30.0417 5.11972L21.7016 0.536983C20.6701 -0.0294862 19.4693 0.937288 19.7987 2.07022L21.6828 8.54494L21.6846 8.54306Z" fill="#C1272D"/>
<path d="M7.2093 24.7635L9.71642 24.029C10.4166 23.8232 10.8175 23.0886 10.6142 22.3862L9.88206 19.8711C9.55266 18.7382 8.02241 18.5701 7.45588 19.6049L5.68099 22.8526C5.11631 23.8874 6.08 25.0921 7.2093 24.7616V24.7635Z" fill="black"/>
<path d="M26.1082 40.9619L23.97 33.6129C23.7649 32.9105 23.0327 32.5083 22.3325 32.7122L8.94819 36.6321C7.81883 36.9626 7.65131 38.4977 8.68275 39.0661L18.1465 44.2701C18.4533 44.4381 18.8147 44.4777 19.1516 44.3796L25.2104 42.6047C25.9106 42.3988 26.3115 41.6643 26.1082 40.9619Z" fill="black"/>
<path d="M27.1208 44.4391C26.9156 43.7367 26.1834 43.3344 25.4832 43.5384L22.8896 44.2975C21.7602 44.6279 21.5927 46.163 22.6242 46.7314L25.9745 48.5743C27.0059 49.1408 28.2068 48.174 27.8774 47.0411L27.1208 44.4391Z" fill="#FF0000"/>
<path d="M33.5128 7.47203L10.9113 14.0903C10.5743 14.1885 10.292 14.4169 10.1226 14.7247L9.90995 15.1156C9.74243 15.4234 9.7029 15.7859 9.80076 16.1239L11.5437 22.1153C11.6585 22.508 11.9371 22.8064 12.2834 22.9574L34.1565 7.4494C33.9457 7.40408 33.7236 7.41163 33.5128 7.47391V7.47203Z" fill="#FF0000"/>
<path d="M37.2827 14.5782L35.5397 8.58681C35.4419 8.24881 35.2141 7.96561 34.9073 7.79567L34.5177 7.5823C34.4028 7.51996 34.2806 7.47464 34.1563 7.44824L12.2832 22.9562C12.5561 23.0771 12.8723 23.1054 13.181 23.0148L36.3848 16.219C37.085 16.0133 37.4859 15.2787 37.2827 14.5763V14.5782Z" fill="#FF0000"/>
<path d="M4.01494 26.7115C3.67803 26.8097 3.3957 27.0382 3.2263 27.346L0.197833 32.8898C-0.152258 33.5318 0.0811382 34.3362 0.721084 34.6874L1.30645 35.0084L23.1193 21.1167L4.01494 26.7115Z" fill="#FF0000"/>
<path d="M24.7571 22.0182C24.5519 21.3157 23.8197 20.9135 23.1195 21.1175L1.30664 35.0092L4.20712 36.6047C4.51392 36.7728 4.8753 36.8125 5.2122 36.7143L25.8958 30.6568C26.596 30.451 26.9969 29.7165 26.7936 29.0141L24.7571 22.0182Z" fill="#C1272D"/>
</svg>
