<svg width="176" height="87" viewBox="0 0 176 87" fill="none" xmlns="http://www.w3.org/2000/svg">
<path d="M47.6264 40.4798C47.6264 38.9497 47.8829 37.5413 48.3927 36.2547C48.9025 34.9712 49.6249 33.8657 50.557 32.9444C51.489 32.0232 52.6025 31.3018 53.8974 30.7835C55.1923 30.265 56.631 30.0059 58.2167 30.0059C59.5523 30.0059 60.8471 30.1869 62.1014 30.5492C63.3556 30.9115 64.5409 31.4892 65.6638 32.2793L64.6754 35.9861L64.4284 35.9361C64.2126 35.1304 63.9405 34.3747 63.612 33.6752C63.2806 32.9757 62.877 32.3698 62.3985 31.8608C61.9199 31.3518 61.3601 30.952 60.7158 30.6616C60.0715 30.3743 59.3302 30.2307 58.4889 30.2307C57.1533 30.2307 56.0023 30.5273 55.0358 31.1206C54.0694 31.714 53.2782 32.4948 52.662 33.4691C52.0427 34.4402 51.5892 35.5645 51.3014 36.8417C51.0137 38.119 50.8698 39.4306 50.8698 40.7828C50.8698 42.135 51.0356 43.3153 51.364 44.5271C51.6923 45.7388 52.1803 46.8161 52.8246 47.7623C53.4689 48.7086 54.2634 49.4674 55.2111 50.0357C56.1587 50.6041 57.2597 50.8883 58.5139 50.8883C59.4053 50.8883 60.2091 50.7165 60.9253 50.3699C61.6415 50.0233 62.264 49.5579 62.7926 48.974C63.3212 48.39 63.759 47.7092 64.1031 46.9348C64.4503 46.1603 64.6974 45.339 64.8444 44.4646L65.0914 44.4146L66.1798 48.3431C64.9914 49.2988 63.7434 49.9983 62.4298 50.4417C61.1193 50.8851 59.6868 51.11 58.1354 51.11C56.6685 51.11 55.2986 50.8602 54.0287 50.3574C52.7589 49.8547 51.6455 49.1427 50.6884 48.2214C49.7313 47.3002 48.9807 46.1822 48.4365 44.8736C47.8922 43.5652 47.6201 42.1037 47.6201 40.4893L47.6264 40.4798Z" fill="black"/>
<path d="M76.2798 51.1033C74.9099 51.1033 73.7151 50.866 72.6923 50.3881C71.6696 49.9103 70.8063 49.2764 70.1057 48.4863C69.4051 47.6962 68.8766 46.7968 68.5231 45.7944C68.1697 44.7889 67.9883 43.7614 67.9789 42.706C67.9695 41.6536 68.1353 40.623 68.4731 39.6174C68.8109 38.6119 69.3301 37.7156 70.0307 36.9255C70.7313 36.1355 71.607 35.5015 72.6548 35.0237C73.7026 34.5459 74.9349 34.3086 76.3549 34.3086C77.3119 34.3086 78.1971 34.4335 79.0134 34.6802C79.8297 34.9269 80.5678 35.2736 81.2279 35.717C81.8878 36.1604 82.457 36.6914 82.9356 37.3096C83.414 37.928 83.8019 38.6057 84.099 39.3489C83.902 39.3833 83.5955 39.4363 83.1826 39.5081C82.7697 39.583 82.2881 39.6674 81.7345 39.7673C81.1809 39.8673 80.5679 39.9734 79.8923 40.089C79.2167 40.2045 78.5161 40.3294 77.7905 40.4606C78.8789 40.4762 79.8141 40.6386 80.5992 40.9416C81.3811 41.2476 82.0254 41.6348 82.529 42.1032C83.0325 42.5717 83.3953 43.1088 83.6174 43.7084C83.8394 44.3111 83.9302 44.92 83.8895 45.5352C83.8488 46.1535 83.683 46.7625 83.3953 47.3621C83.1076 47.9648 82.6978 48.4957 82.1693 48.9548C81.428 49.6137 80.5678 50.1383 79.5952 50.5224C78.6225 50.9096 77.5152 51.1033 76.2798 51.1033ZM71.2817 41.616C71.2161 42.6216 71.2473 43.6615 71.3818 44.742C71.5132 45.8194 71.779 46.8093 72.1731 47.7056C72.5704 48.605 73.1052 49.3451 73.7808 49.929C74.4563 50.5131 75.3164 50.816 76.3549 50.8316C77.5434 50.816 78.6037 50.6223 79.5358 50.2507C80.4678 49.8791 81.2872 49.3826 81.9972 48.7549C82.8042 48.0304 83.3171 47.181 83.5298 46.2098C83.7425 45.2385 83.6361 44.3173 83.2076 43.4429C82.9449 42.9151 82.6134 42.4779 82.2193 42.1344C81.8221 41.7879 81.3811 41.513 80.8963 41.3069C80.4084 41.1008 79.8861 40.9571 79.3262 40.876C78.7663 40.7948 78.1971 40.751 77.6185 40.751C77.0399 40.751 76.4362 40.7853 75.8482 40.8509C75.2633 40.9165 74.694 40.9946 74.1405 41.0852C73.5869 41.1757 73.0677 41.2694 72.5829 41.3694C72.0949 41.4693 71.6633 41.5505 71.2849 41.616H71.2817ZM71.2817 41.3443C71.8604 41.2444 72.4734 41.1382 73.1239 41.0227C73.7746 40.9072 74.447 40.7853 75.1413 40.6511C76.2141 40.47 77.2744 40.2857 78.3222 40.0953C79.3699 39.9047 80.3208 39.7361 81.1809 39.5894C81.0495 38.946 80.8618 38.3246 80.6242 37.725C80.3865 37.1254 80.0705 36.5883 79.6828 36.1199C79.2949 35.6514 78.8258 35.2767 78.2722 34.9956C77.7185 34.7146 77.0711 34.5772 76.3299 34.5772C75.4072 34.5772 74.6347 34.7864 74.0154 35.208C73.396 35.6265 72.8925 36.1667 72.5047 36.8257C72.1168 37.4845 71.8291 38.2121 71.6382 39.0116C71.4475 39.8111 71.3286 40.5887 71.2786 41.3475L71.2817 41.3443Z" fill="black"/>
<path d="M85.8809 50.8319C86.6878 50.8319 87.2133 50.6227 87.451 50.2012C87.6886 49.7827 87.8169 49.1269 87.8356 48.2369V37.8097C87.8356 37.3007 87.8325 36.8447 87.8231 36.4513C87.8138 36.0547 87.7637 35.7236 87.6761 35.4519C87.5855 35.1803 87.4322 34.9711 87.2195 34.8212C87.0037 34.6744 86.6909 34.5838 86.2781 34.5495V34.3027C86.6252 34.2715 87.0068 34.2215 87.4291 34.156C87.8482 34.0904 88.2705 34.0092 88.6896 33.9093C89.1086 33.8093 89.5277 33.7001 89.9406 33.5751C90.3535 33.4502 90.7225 33.3159 91.0541 33.166V40.0082C91.1541 39.2025 91.3731 38.4343 91.7109 37.7098C92.0487 36.9853 92.5178 36.3607 93.1215 35.833C93.722 35.3052 94.457 34.9024 95.3231 34.6213C96.1901 34.3402 97.2067 34.234 98.3794 34.2996L98.3293 37.51C97.9507 37.4287 97.5692 37.3662 97.1906 37.3257C96.812 37.285 96.44 37.2632 96.0775 37.2632C95.3515 37.2632 94.6823 37.3537 94.0723 37.5349C93.4624 37.716 92.9338 37.9877 92.4897 38.3499C92.0456 38.7122 91.6921 39.1744 91.4388 39.7334C91.1823 40.2924 91.0541 40.9513 91.0541 41.7102V48.3806C91.0697 49.2206 91.2073 49.8389 91.4638 50.2324C91.7202 50.629 92.2332 50.8257 93.0088 50.8257V51.0725C92.1832 51.0381 91.5169 51.01 91.004 50.985C90.4911 50.96 90.0157 50.9475 89.5684 50.9475C89.0899 50.9475 88.5957 50.96 88.0828 50.985C87.5698 51.01 86.888 51.0381 86.0279 51.0725H85.8809V50.8257V50.8319Z" fill="black"/>
<path d="M96.9658 46.2125C96.9658 45.3725 97.1504 44.6636 97.5224 44.089C97.8953 43.5113 98.3733 43.0366 98.9583 42.6556C99.5432 42.2777 100.2 41.9748 100.925 41.7531C101.651 41.5314 102.368 41.3533 103.078 41.2222H103.102C102.342 41.0754 101.726 40.8007 101.248 40.4072C100.769 40.0105 100.428 39.5546 100.222 39.0363C100.016 38.5178 99.9502 37.9776 100.025 37.4186C100.1 36.8596 100.306 36.3475 100.644 35.8853C100.982 35.4231 101.457 35.0421 102.068 34.7361C102.677 34.4332 103.409 34.2802 104.266 34.2802C105.255 34.2802 106.19 34.3707 107.078 34.5518C107.966 34.7329 108.751 35.0296 109.432 35.4418C110.115 35.8541 110.678 36.388 111.122 37.047C111.566 37.7059 111.844 38.5116 111.96 39.4672C111.438 39.6483 110.916 39.8013 110.403 39.9231C109.887 40.048 109.377 40.1573 108.87 40.2573C108.82 39.4328 108.71 38.6771 108.535 37.9838C108.36 37.2905 108.094 36.6941 107.732 36.1914C107.369 35.6885 106.902 35.2951 106.334 35.0047C105.764 34.7174 105.06 34.5643 104.219 34.5487C103.231 34.5643 102.418 34.7829 101.783 35.2045C101.148 35.6229 100.713 36.1476 100.485 36.7722C100.318 37.2 100.25 37.6341 100.275 38.0681C100.3 38.5053 100.419 38.9113 100.635 39.2923C100.848 39.6702 101.15 40.0043 101.538 40.2916C101.927 40.5789 102.402 40.7912 102.962 40.9224C103.884 41.1535 104.972 41.2441 106.227 41.1941C107.068 41.1598 107.988 41.0536 108.986 40.8725C109.983 40.6913 111.003 40.429 112.041 40.0823C112.998 39.7701 113.937 39.3891 114.863 38.9456C115.786 38.5022 116.645 37.9807 117.436 37.3904C118.228 36.7971 118.938 36.1101 119.563 35.3263C120.189 34.5455 120.692 33.6587 121.074 32.6719V40.2573C121.221 39.4828 121.437 38.7364 121.718 38.0213C122 37.3061 122.356 36.6753 122.795 36.132C123.233 35.5886 123.752 35.1483 124.352 34.811C124.953 34.4737 125.644 34.2958 126.42 34.2802C127.542 34.2302 128.566 34.3614 129.487 34.6767C130.41 34.9891 131.214 35.4418 131.899 36.0351C132.584 36.6285 133.144 37.3561 133.582 38.2211C134.019 39.0862 134.32 40.0449 134.486 41.1004C134.585 40.2448 134.767 39.411 135.03 38.6053C135.292 37.7996 135.649 37.0782 136.093 36.4443C136.537 35.8103 137.085 35.3013 137.726 34.914C138.371 34.5268 139.112 34.3176 139.953 34.2833C141.222 34.2333 142.361 34.4019 143.368 34.7892C144.375 35.1764 145.229 35.7447 145.93 36.4942C146.631 37.2437 147.171 38.1524 147.55 39.2236C147.929 40.2947 148.135 41.4814 148.17 42.7805V48.2392C148.185 49.1137 148.314 49.7601 148.554 50.1785C148.792 50.6001 149.317 50.8094 150.125 50.8094V51.056C149.545 51.0248 148.974 50.9998 148.404 50.9811C147.835 50.9655 147.288 50.9561 146.759 50.9561C146.231 50.9561 145.739 50.9593 145.286 50.9686C144.832 50.978 144.442 50.9904 144.109 51.006C143.713 51.0217 143.359 51.0404 143.046 51.056V50.8094C143.49 50.8094 143.841 50.7594 144.097 50.6626C144.354 50.5626 144.548 50.4127 144.679 50.2066C144.811 50.0005 144.898 49.7319 144.938 49.4041C144.979 49.0761 145.001 48.689 145.001 48.2423V43.0553C145.001 41.953 144.926 40.8819 144.779 39.845C144.632 38.8082 144.366 37.8901 143.988 37.0907C143.61 36.2912 143.093 35.6635 142.44 35.2014C141.789 34.7392 140.951 34.5175 139.928 34.5331C138.956 34.5675 138.133 34.8641 137.467 35.4231C136.797 35.9821 136.253 36.6784 135.834 37.5091C135.412 38.3398 135.108 39.2298 134.918 40.1761C134.726 41.1223 134.633 41.9904 134.633 42.7837V48.2423C134.649 49.1168 134.777 49.7632 135.017 50.1817C135.256 50.6033 135.781 50.8125 136.587 50.8125V51.0592C136.009 51.028 135.436 51.0029 134.867 50.9842C134.298 50.9686 133.751 50.9593 133.222 50.9593C132.693 50.9593 132.203 50.9624 131.749 50.9717C131.295 50.9811 130.904 50.9936 130.573 51.0093C130.176 51.0248 129.823 51.0436 129.509 51.0592V50.8125C129.954 50.8125 130.304 50.7625 130.561 50.6657C130.817 50.5657 131.011 50.4159 131.142 50.2097C131.274 50.0036 131.362 49.7351 131.402 49.4072C131.443 49.0793 131.465 48.6921 131.465 48.2455V43.0584C131.465 41.9561 131.389 40.885 131.242 39.8482C131.096 38.8113 130.83 37.8933 130.451 37.0938C130.072 36.2944 129.557 35.6667 128.906 35.2045C128.255 34.7423 127.417 34.5206 126.394 34.5362C125.503 34.5706 124.727 34.8328 124.068 35.3263C123.408 35.8197 122.864 36.4536 122.435 37.2281C122.006 38.0026 121.675 38.8676 121.443 39.8232C121.212 40.7787 121.09 41.7344 121.071 42.6899V48.3985C121.087 48.8107 121.114 49.1699 121.159 49.4728C121.2 49.7788 121.284 50.0287 121.406 50.2253C121.531 50.4221 121.713 50.572 121.95 50.6688C122.188 50.7687 122.507 50.8156 122.904 50.8156V51.0623C122.409 51.0311 121.843 51.006 121.209 50.9873C120.574 50.9717 119.892 50.9624 119.167 50.9624C118.672 50.9624 118.156 50.9717 117.618 50.9873C117.083 51.0029 116.548 51.028 116.023 51.0623V50.8156C116.436 50.8156 116.761 50.7625 116.999 50.6564C117.237 50.5501 117.418 50.394 117.543 50.1879C117.668 49.9818 117.75 49.7194 117.79 49.3978C117.831 49.0761 117.853 48.6952 117.853 48.2487V41.6532C117.853 41.1441 117.85 40.6944 117.84 40.3073C117.831 39.92 117.784 39.5952 117.69 39.3329C117.599 39.0706 117.452 38.8582 117.256 38.7021C117.055 38.546 116.767 38.4522 116.386 38.4179C115.707 38.8301 115.004 39.1955 114.275 39.5171C113.546 39.8388 112.792 40.123 112.014 40.3696C112.014 40.5008 112.017 40.632 112.026 40.7663C112.035 40.8974 112.038 41.1441 112.038 41.5063V46.175C112.038 46.7684 112.041 47.3461 112.051 47.9051C112.06 48.4641 112.113 48.9607 112.211 49.3885C112.311 49.8163 112.473 50.163 112.705 50.4252C112.936 50.6876 113.283 50.8218 113.743 50.8218V51.0685C112.886 51.0685 112.154 51.0029 111.547 50.8718C110.94 50.7407 110.44 50.5221 110.049 50.216C109.655 49.9131 109.364 49.5008 109.177 48.9794C108.989 48.461 108.895 47.8051 108.895 47.0151C108.432 48.3174 107.706 49.3167 106.718 50.0161C105.727 50.7156 104.476 51.0842 102.955 51.1154C102.149 51.1154 101.379 51.028 100.653 50.8562C99.9275 50.6844 99.2933 50.4034 98.7491 50.0161C98.2048 49.6289 97.7694 49.123 97.4504 48.4953C97.1286 47.8707 96.9687 47.1119 96.9687 46.2219L96.9658 46.2125ZM100.131 46.4342C100.131 47.6865 100.413 48.667 100.975 49.3728C101.538 50.0817 102.449 50.4346 103.706 50.4346C104.416 50.4346 105.092 50.3284 105.73 50.113C106.368 49.9006 106.915 49.5446 107.381 49.0512C107.847 48.5578 108.213 47.9145 108.485 47.1244C108.758 46.3343 108.895 45.3631 108.895 44.2077V41.1692C108.266 41.269 107.662 41.3409 107.084 41.3909C106.636 41.4409 106.199 41.4689 105.768 41.4783C105.336 41.4876 104.923 41.4752 104.526 41.4409C103.947 41.5719 103.394 41.7531 102.862 41.9842C102.333 42.2152 101.864 42.5276 101.461 42.9241C101.054 43.3208 100.732 43.8017 100.494 44.37C100.253 44.9384 100.134 45.6255 100.134 46.4342H100.131Z" fill="black"/>
<path d="M151.897 50.8309C152.705 50.8309 153.23 50.6217 153.468 50.2001C153.705 49.7816 153.834 49.1258 153.853 48.2359V38.9454C153.853 38.4363 153.849 37.9804 153.84 37.5869C153.831 37.1904 153.784 36.8593 153.693 36.5876C153.602 36.3159 153.449 36.1067 153.237 35.9568C153.021 35.81 152.708 35.7195 152.295 35.6852V35.4384C152.642 35.4072 153.024 35.3572 153.446 35.2916C153.865 35.2261 154.287 35.1449 154.707 35.045C155.126 34.945 155.544 34.8357 155.958 34.7108C156.371 34.5859 156.74 34.4516 157.071 34.3017V48.3826C157.086 49.2226 157.224 49.841 157.481 50.2345C157.738 50.631 158.251 50.8278 159.029 50.8278V51.0745C158.534 51.0401 157.947 51.0183 157.271 50.9996C156.596 50.9839 155.877 50.9746 155.119 50.9746C154.59 50.9746 154.056 50.9839 153.511 50.9996C152.967 51.0152 152.432 51.0401 151.904 51.0745V50.8278L151.897 50.8309ZM153.556 31.3132C153.556 30.7697 153.721 30.3076 154.05 29.9297C154.378 29.5519 154.81 29.3613 155.335 29.3613C155.895 29.3613 156.336 29.555 156.658 29.9423C156.98 30.3294 157.14 30.7853 157.14 31.3132C157.14 31.8409 156.971 32.2687 156.633 32.6466C156.295 33.0245 155.861 33.215 155.335 33.215C154.81 33.215 154.4 33.0463 154.062 32.7091C153.724 32.3718 153.556 31.9065 153.556 31.3132Z" fill="black"/>
<path d="M160.805 42.7282C160.805 41.5103 160.999 40.3861 161.387 39.3556C161.775 38.325 162.329 37.4381 163.044 36.6886C163.761 35.9392 164.627 35.3551 165.643 34.9336C166.66 34.512 167.782 34.3027 169.021 34.3027C171.198 34.3027 173.187 34.9117 174.986 36.1296L174.045 39.4149H173.92C173.788 38.7559 173.585 38.1346 173.313 37.5505C173.04 36.9666 172.697 36.4513 172.287 36.0079C171.874 35.5644 171.398 35.2084 170.863 34.9461C170.329 34.6838 169.729 34.5495 169.069 34.5495C168.096 34.5495 167.283 34.7712 166.631 35.2177C165.981 35.6613 165.453 36.2483 165.049 36.9728C164.646 37.6973 164.355 38.5249 164.183 39.4555C164.011 40.3861 163.923 41.3292 163.923 42.2848C163.923 43.3059 164.014 44.324 164.195 45.3358C164.377 46.3476 164.68 47.2594 165.112 48.0652C165.544 48.8709 166.106 49.5266 166.807 50.0294C167.508 50.5322 168.371 50.782 169.393 50.782C170.729 50.6821 171.843 50.248 172.734 49.4735C173.625 48.6991 174.326 47.7029 174.839 46.485L175.086 46.585C174.508 47.9839 173.7 49.0832 172.662 49.8826C171.623 50.6821 170.354 51.0818 168.853 51.0818C167.683 51.0818 166.6 50.8695 165.612 50.4385C164.624 50.0107 163.773 49.4205 163.063 48.671C162.353 47.9215 161.802 47.0408 161.406 46.026C161.008 45.0142 160.811 43.9149 160.811 42.7282H160.805Z" fill="black"/>
<path d="M23.7682 19.8426L33.3265 17.057C34.4899 16.7167 35.1562 15.5019 34.8184 14.3401L32.0285 4.79673C31.4811 2.92303 28.9383 2.6451 27.9969 4.35641L21.2286 16.6854C20.2902 18.3967 21.8916 20.389 23.7682 19.8426Z" fill="black"/>
<path d="M36.3668 13.8879C36.7078 15.0496 37.9244 15.7148 39.0879 15.3775L49.8128 12.2515C51.6894 11.7051 51.9678 9.16618 50.2538 8.22621L36.3949 0.647064C34.681 -0.289789 32.6855 1.30911 33.2329 3.18281L36.3637 13.891L36.3668 13.8879Z" fill="#C1272D"/>
<path d="M12.3112 40.7142L16.4773 39.4994C17.6408 39.159 18.307 37.9442 17.9692 36.7825L16.7525 32.6229C16.2052 30.7492 13.6623 30.4713 12.7209 32.1826L9.77154 37.5539C8.83318 39.2652 10.4346 41.2576 12.3112 40.711V40.7142Z" fill="black"/>
<path d="M43.7168 67.5028L40.1637 55.3488C39.8228 54.1871 38.6061 53.5219 37.4426 53.8592L15.2016 60.3422C13.3249 60.8887 13.0465 63.4276 14.7605 64.3675L30.4866 72.9741C30.9964 73.252 31.597 73.3176 32.1568 73.1552L42.2249 70.2198C43.3884 69.8794 44.0546 68.6646 43.7168 67.5028Z" fill="black"/>
<path d="M45.3996 73.2531C45.0587 72.0914 43.842 71.4262 42.6785 71.7635L38.3686 73.0189C36.4919 73.5653 36.2135 76.1042 37.9276 77.0442L43.4948 80.0921C45.2088 81.029 47.2043 79.43 46.6569 77.5564L45.3996 73.2531Z" fill="#FF0000"/>
<path d="M56.0216 12.1166L18.4642 23.0622C17.9043 23.2246 17.4351 23.6024 17.1536 24.1114L16.8003 24.7579C16.5219 25.267 16.4562 25.8665 16.6188 26.4255L19.5151 36.3343C19.7058 36.9838 20.1688 37.4773 20.7443 37.727L57.0913 12.0792C56.7409 12.0043 56.3719 12.0167 56.0216 12.1197V12.1166Z" fill="#FF0000"/>
<path d="M62.2862 23.87L59.39 13.9611C59.2274 13.4021 58.8488 12.9338 58.339 12.6527L57.6916 12.2998C57.5008 12.1967 57.2976 12.1218 57.0911 12.0781L20.7441 37.726C21.1976 37.9258 21.7231 37.9727 22.2361 37.8228L60.7943 26.5837C61.9578 26.2434 62.6241 25.0285 62.2862 23.8668V23.87Z" fill="#FF0000"/>
<path d="M7.00392 43.9365C6.44406 44.099 5.9749 44.4768 5.69342 44.9858L0.660948 54.1546C0.079195 55.2163 0.467034 56.5466 1.53044 57.1274L2.50316 57.6583L38.75 34.6836L7.00392 43.9365Z" fill="#FF0000"/>
<path d="M41.471 36.173C41.13 35.0112 39.9134 34.3461 38.7498 34.6834L2.50293 57.6582L7.32271 60.2969C7.83252 60.5749 8.43305 60.6405 8.99288 60.4781L43.3632 50.46C44.5267 50.1195 45.1929 48.9048 44.8551 47.7431L41.471 36.173Z" fill="#C1272D"/>
<path d="M47.7549 66.6524L47.9364 66.6742C48.0583 67.4925 48.2773 68.2481 48.5963 68.9383C48.9154 69.6285 49.325 70.2249 49.8255 70.7246C50.3259 71.2242 50.914 71.6146 51.5926 71.8957C52.2683 72.1767 53.0251 72.3173 53.8602 72.3173C54.6047 72.3173 55.3084 72.236 55.9683 72.0799C56.6282 71.9206 57.2068 71.6739 57.701 71.3398C58.1952 71.0056 58.5862 70.584 58.874 70.0781C59.1617 69.5691 59.3056 68.9602 59.3056 68.245C59.3056 67.5768 59.1272 67.0209 58.7707 66.5712C58.4141 66.1246 57.945 65.7405 57.3696 65.422C56.7908 65.1035 56.1309 64.8255 55.3866 64.5914C54.6421 64.3571 53.879 64.1229 53.097 63.8856C52.3151 63.6513 51.552 63.3891 50.8076 63.1018C50.0632 62.8145 49.4032 62.4584 48.8246 62.0305C48.246 61.6058 47.78 61.0937 47.4234 60.4942C47.0668 59.8945 46.8886 59.1545 46.8886 58.2769C46.8886 57.3369 47.1138 56.5437 47.561 55.9004C48.0083 55.2571 48.5932 54.7324 49.3157 54.3297C50.0382 53.9268 50.8545 53.6364 51.7647 53.4553C52.6748 53.2741 53.6038 53.1836 54.5452 53.1836C55.79 53.1836 56.9378 53.3116 57.9856 53.5708C59.0334 53.83 60.0969 54.2234 61.1759 54.7544L60.0374 58.6891L59.8091 58.6673C59.7778 57.9241 59.6214 57.2308 59.3431 56.5844C59.0616 55.9411 58.6863 55.3852 58.2139 54.923C57.7417 54.4608 57.1912 54.0955 56.5625 53.83C55.9307 53.5645 55.2521 53.4303 54.5234 53.4303C53.854 53.4303 53.2159 53.5177 52.6092 53.6926C52.0024 53.8674 51.4613 54.1204 50.9922 54.4546C50.5198 54.7887 50.1477 55.204 49.8755 55.7068C49.6034 56.2096 49.4658 56.7748 49.4658 57.4119C49.4658 58.0489 49.6441 58.5548 50.0007 58.9702C50.3572 59.3886 50.8294 59.7353 51.4144 60.0163C51.9993 60.2974 52.6685 60.5441 53.4192 60.7564C54.1698 60.9688 54.9393 61.1843 55.7212 61.406C56.5031 61.6278 57.2694 61.8713 58.0232 62.1461C58.7738 62.4178 59.4432 62.7645 60.0281 63.1829C60.6129 63.6014 61.0852 64.1166 61.4418 64.7287C61.7983 65.3439 61.9766 66.0965 61.9766 66.9927C61.9766 68.0389 61.7576 68.9196 61.3167 69.6316C60.8757 70.3436 60.2846 70.9182 59.5401 71.3492C58.7958 71.7832 57.9324 72.0892 56.9536 72.2704C55.9746 72.4515 54.9518 72.5421 53.8884 72.5421C52.581 72.5421 51.3393 72.3891 50.1633 72.0861C48.9873 71.7832 47.8425 71.2898 46.7354 70.6059L47.7612 66.6462L47.7549 66.6524Z" fill="#FF0000"/>
<path d="M71.2471 72.5456C70.0773 72.5456 69.0202 72.3395 68.0787 71.9304C67.1373 71.5212 66.3366 70.9591 65.6735 70.2471C65.0135 69.5351 64.5037 68.7014 64.1472 67.7457C63.7906 66.7902 63.6123 65.7596 63.6123 64.651C63.6123 63.5424 63.7938 62.5994 64.1597 61.6812C64.5256 60.7631 65.0417 59.9636 65.7079 59.2798C66.3772 58.5958 67.1842 58.0618 68.135 57.6746C69.0859 57.2874 70.1429 57.0938 71.3128 57.0938C72.4825 57.0938 73.5616 57.2905 74.503 57.6839C75.4444 58.0775 76.2482 58.6208 76.9176 59.3109C77.5869 60.0011 78.0998 60.813 78.4564 61.7467C78.813 62.6805 78.9912 63.6923 78.9912 64.7853C78.9912 65.8783 78.813 66.9213 78.4564 67.8676C78.0998 68.8169 77.5838 69.6351 76.9082 70.3252C76.2326 71.0154 75.4163 71.5588 74.4592 71.9522C73.5022 72.3457 72.4325 72.5425 71.2471 72.5425V72.5456ZM66.5993 64.6729C66.5993 65.1601 66.6243 65.6847 66.6807 66.253C66.7338 66.8214 66.8276 67.3866 66.9653 67.9487C67.1029 68.5109 67.2842 69.0511 67.5126 69.5758C67.7409 70.1004 68.0318 70.5626 68.3884 70.9622C68.7449 71.3651 69.164 71.6868 69.6425 71.9304C70.1211 72.174 70.6872 72.2957 71.3409 72.2957C72.3136 72.2957 73.1018 72.0397 73.7117 71.5212C74.3184 71.006 74.7939 70.3689 75.1348 69.6101C75.4758 68.8513 75.7072 68.0299 75.8292 67.1431C75.9511 66.2561 76.0105 65.4474 76.0105 64.7197C76.0105 64.2357 75.9824 63.7141 75.9292 63.1614C75.876 62.6087 75.7822 62.0591 75.6446 61.5125C75.507 60.966 75.3255 60.4383 75.0972 59.9324C74.8689 59.4234 74.5812 58.9768 74.2309 58.5896C73.8806 58.2023 73.4646 57.8963 72.9766 57.6683C72.4919 57.4404 71.9289 57.3279 71.2909 57.3279C70.6528 57.3279 70.0898 57.4404 69.605 57.6683C69.1202 57.8963 68.7042 58.2023 68.3633 58.5896C68.0224 58.9768 67.7378 59.4203 67.5094 59.9199C67.2811 60.4196 67.0998 60.9442 66.9621 61.4907C66.8245 62.0372 66.7306 62.5868 66.6775 63.1395C66.6243 63.6923 66.5961 64.2044 66.5961 64.676L66.5993 64.6729Z" fill="#FF0000"/>
<path d="M83.9169 72.4539C83.3695 72.4539 82.8222 72.4632 82.2748 72.4757C81.7275 72.4913 81.1802 72.5132 80.6328 72.5444V72.3165C81.3772 72.3165 81.8588 72.1228 82.0809 71.7356C82.2998 71.3484 82.4187 70.7457 82.4343 69.9275V56.3681C82.4343 55.8965 82.4312 55.4812 82.4218 55.1158C82.4125 54.7505 82.3686 54.4444 82.2842 54.1946C82.1998 53.9448 82.059 53.7512 81.862 53.6137C81.665 53.4763 81.3772 53.3952 80.9956 53.364V53.1359C81.3147 53.1047 81.6681 53.061 82.0559 52.9985C82.4437 52.9361 82.8316 52.8612 83.2194 52.7706C83.6073 52.68 83.9888 52.577 84.3704 52.4646C84.7489 52.3521 85.0929 52.2241 85.3963 52.0898V70.0649C85.4119 70.8393 85.537 71.4077 85.7716 71.7699C86.0062 72.1353 86.4816 72.3165 87.1947 72.3165V72.5444C86.6474 72.5132 86.1 72.4913 85.5527 72.4757C85.0054 72.4601 84.458 72.4539 83.9106 72.4539H83.9169Z" fill="#FF0000"/>
<path d="M91.3706 57.1429C92.19 57.1272 92.9187 57.1054 93.5568 57.0742V64.6065C93.5568 65.562 93.6131 66.5052 93.7288 67.4389C93.8414 68.3726 94.0634 69.2033 94.3885 69.9309C94.7141 70.6585 95.1741 71.2456 95.7685 71.6954C96.3591 72.1419 97.1438 72.3511 98.114 72.3199C98.9488 72.3043 99.6777 72.0607 100.3 71.5922C100.922 71.1208 101.438 70.5242 101.848 69.7935C102.258 69.0659 102.571 68.2539 102.783 67.3577C102.996 66.4646 103.109 65.5745 103.125 64.697V59.5787C103.109 58.8042 102.987 58.2359 102.759 57.8736C102.53 57.5083 102.052 57.3271 101.323 57.3271V57.0992C101.839 57.1304 102.286 57.1492 102.668 57.1554C103.046 57.1648 103.39 57.1679 103.694 57.1679C104.104 57.1679 104.488 57.1648 104.845 57.1554C105.202 57.1492 105.614 57.1304 106.087 57.0992V69.3157C106.087 69.603 106.089 69.9216 106.099 70.2713C106.105 70.6211 106.155 70.9427 106.246 71.2394C106.336 71.536 106.49 71.7859 106.703 71.9889C106.915 72.195 107.228 72.2949 107.638 72.2949V72.5448C106.847 72.5448 106.168 72.4854 105.598 72.3636C105.029 72.2418 104.56 72.042 104.197 71.7609C103.831 71.4799 103.562 71.0988 103.387 70.6117C103.212 70.1277 103.125 69.5187 103.125 68.7911V67.0173C102.987 67.7012 102.787 68.3664 102.521 69.0191C102.255 69.6717 101.914 70.2557 101.495 70.771C101.076 71.2862 100.584 71.7078 100.013 72.0326C99.4429 72.3605 98.8021 72.5291 98.0856 72.5448C96.9157 72.5916 95.8717 72.4385 94.9517 72.0888C94.0322 71.739 93.2565 71.2269 92.6278 70.5524C91.996 69.8778 91.5112 69.0534 91.1704 68.0822C90.8294 67.111 90.6511 66.0274 90.6355 64.8282V59.688C90.6199 58.8854 90.501 58.289 90.2821 57.9017C90.0631 57.5145 89.5783 57.3209 88.834 57.3209V57.0929C89.7003 57.1397 90.5417 57.1523 91.3642 57.1397L91.3706 57.1429Z" fill="#FF0000"/>
<path d="M113.405 53.3203H113.655V57.0958H115.204V57.3238H113.655V69.6434C113.655 70.1524 113.703 70.6022 113.793 70.9987C113.884 71.3922 114.038 71.7076 114.25 71.9419C114.463 72.176 114.782 72.2948 115.207 72.2948V72.5445C114.415 72.5445 113.743 72.4852 113.183 72.3635C112.623 72.2416 112.163 72.0418 111.804 71.7607C111.441 71.4796 111.175 71.0987 111 70.6115C110.828 70.1275 110.741 69.5185 110.741 68.7909V60.328C110.741 59.872 110.737 59.4661 110.728 59.1101C110.719 58.7541 110.675 58.4511 110.59 58.2013C110.506 57.9515 110.362 57.7516 110.159 57.5986C109.952 57.4487 109.662 57.355 109.283 57.3269V57.0989C111.898 57.0989 113.274 55.8405 113.408 53.3234L113.405 53.3203Z" fill="#FF0000"/>
<path d="M116.867 72.3168C117.611 72.3168 118.093 72.1232 118.315 71.736C118.534 71.3488 118.653 70.746 118.668 69.9279V61.3744C118.668 60.906 118.665 60.4875 118.656 60.1221C118.647 59.7568 118.603 59.4508 118.519 59.2009C118.435 58.9511 118.294 58.7575 118.097 58.6201C117.899 58.4826 117.611 58.4015 117.23 58.3702V58.1422C117.549 58.111 117.903 58.0673 118.291 58.0048C118.678 57.9455 119.066 57.8674 119.454 57.7769C119.842 57.6863 120.223 57.5832 120.605 57.4709C120.984 57.3584 121.327 57.2335 121.631 57.0961V70.0652C121.646 70.8397 121.771 71.4081 122.006 71.7703C122.241 72.1358 122.716 72.3168 123.429 72.3168V72.5448C122.972 72.5136 122.435 72.4918 121.812 72.4761C121.19 72.4605 120.526 72.4542 119.829 72.4542C119.341 72.4542 118.85 72.4636 118.347 72.4761C117.846 72.4918 117.352 72.5136 116.864 72.5448V72.3168H116.867ZM118.394 54.3418C118.394 53.8421 118.547 53.4174 118.85 53.0677C119.154 52.7179 119.548 52.543 120.035 52.543C120.552 52.543 120.958 52.721 121.255 53.077C121.552 53.433 121.699 53.8546 121.699 54.3387C121.699 54.8226 121.543 55.2193 121.233 55.5659C120.921 55.9157 120.524 56.0905 120.035 56.0905C119.548 56.0905 119.172 55.9344 118.862 55.6253C118.553 55.316 118.397 54.8851 118.397 54.3387L118.394 54.3418Z" fill="#FF0000"/>
<path d="M132.703 72.5456C131.533 72.5456 130.476 72.3395 129.535 71.9304C128.593 71.5212 127.792 70.9591 127.13 70.2471C126.47 69.5351 125.96 68.7014 125.603 67.7457C125.247 66.7902 125.068 65.7596 125.068 64.651C125.068 63.5424 125.25 62.5994 125.615 61.6812C125.982 60.7631 126.498 59.9636 127.164 59.2798C127.83 58.5958 128.641 58.0618 129.591 57.6746C130.539 57.2874 131.599 57.0938 132.769 57.0938C133.938 57.0938 135.017 57.2905 135.959 57.6839C136.901 58.0775 137.704 58.6208 138.374 59.3109C139.043 60.0011 139.556 60.813 139.913 61.7467C140.27 62.6805 140.447 63.6923 140.447 64.7853C140.447 65.8783 140.27 66.9213 139.913 67.8676C139.556 68.8138 139.04 69.6351 138.364 70.3252C137.688 71.0154 136.872 71.5588 135.916 71.9522C134.959 72.3457 133.889 72.5425 132.703 72.5425V72.5456ZM128.056 64.6729C128.056 65.1601 128.08 65.6847 128.133 66.253C128.187 66.8214 128.281 67.3866 128.418 67.9487C128.556 68.5109 128.737 69.0511 128.965 69.5758C129.194 70.1004 129.485 70.5626 129.845 70.9622C130.201 71.3651 130.62 71.6868 131.099 71.9304C131.578 72.174 132.144 72.2957 132.797 72.2957C133.77 72.2957 134.558 72.0397 135.168 71.5212C135.774 71.006 136.25 70.3689 136.591 69.6101C136.932 68.8513 137.163 68.0299 137.285 67.1431C137.407 66.2561 137.467 65.4474 137.467 64.7197C137.467 64.2357 137.438 63.7141 137.385 63.1614C137.332 62.6087 137.239 62.0591 137.101 61.5125C136.963 60.966 136.782 60.4383 136.553 59.9324C136.325 59.4265 136.038 58.9768 135.687 58.5896C135.337 58.2023 134.921 57.8963 134.433 57.6683C133.945 57.4404 133.385 57.3279 132.747 57.3279C132.109 57.3279 131.546 57.4404 131.061 57.6683C130.573 57.8963 130.161 58.2023 129.82 58.5896C129.478 58.9768 129.194 59.4203 128.965 59.9199C128.737 60.4196 128.556 60.9442 128.418 61.4907C128.281 62.0372 128.187 62.5868 128.133 63.1395C128.08 63.6923 128.056 64.2044 128.056 64.676V64.6729Z" fill="#FF0000"/>
<path d="M142.093 72.3168C142.837 72.3168 143.318 72.1232 143.541 71.736C143.759 71.3487 143.879 70.7461 143.894 69.9278V60.3251C143.894 59.8567 143.891 59.4382 143.881 59.0728C143.872 58.7075 143.828 58.4015 143.744 58.1516C143.66 57.9018 143.519 57.7082 143.322 57.5708C143.125 57.4334 142.837 57.3522 142.455 57.321V57.093C142.774 57.0618 143.128 57.018 143.516 56.9555C143.903 56.8963 144.291 56.8182 144.679 56.7276C145.067 56.6371 145.449 56.5341 145.83 56.4216C146.209 56.3091 146.553 56.1843 146.856 56.0469V62.6235C146.994 61.8959 147.191 61.2026 147.447 60.5406C147.704 59.8817 148.032 59.3009 148.427 58.8011C148.82 58.3015 149.296 57.8956 149.849 57.5832C150.403 57.271 151.048 57.1086 151.776 57.093C152.945 57.0462 153.993 57.1992 154.919 57.5489C155.846 57.8987 156.63 58.4108 157.278 59.0854C157.922 59.7599 158.419 60.5781 158.769 61.543C159.12 62.508 159.308 63.5885 159.339 64.7846V69.9498C159.354 70.7554 159.47 71.3487 159.692 71.736C159.911 72.1232 160.395 72.3168 161.14 72.3168V72.5448C160.608 72.5136 160.08 72.4918 159.558 72.4761C159.033 72.4605 158.529 72.4543 158.044 72.4543C157.559 72.4543 157.105 72.4574 156.69 72.4667C156.271 72.4761 155.911 72.4854 155.607 72.5011C155.242 72.5167 154.916 72.5323 154.628 72.5479V72.32C155.038 72.32 155.36 72.2732 155.599 72.1826C155.832 72.092 156.011 71.9515 156.133 71.761C156.254 71.5705 156.333 71.3238 156.371 71.0209C156.408 70.718 156.427 70.362 156.427 69.9529V65.0375C156.427 64.0226 156.358 63.042 156.22 62.102C156.083 61.1621 155.842 60.3314 155.492 59.61C155.141 58.8887 154.666 58.3234 154.069 57.9143C153.468 57.5052 152.698 57.3084 151.754 57.3241C150.919 57.3553 150.197 57.6021 149.59 58.0642C148.983 58.5264 148.48 59.1228 148.085 59.8504C147.691 60.5781 147.391 61.39 147.185 62.2863C146.979 63.1825 146.869 64.0694 146.853 64.9469V70.0653C146.869 70.8397 146.994 71.4081 147.228 71.7703C147.463 72.1358 147.938 72.3168 148.651 72.3168V72.5448C147.891 72.5136 147.275 72.4887 146.806 72.4667C146.334 72.4449 145.896 72.4324 145.483 72.4324C145.042 72.4324 144.586 72.4449 144.116 72.4667C143.644 72.4887 143.015 72.5167 142.224 72.5448H142.086V72.3168H142.093Z" fill="#FF0000"/>
<path d="M164.675 64.1241C164.217 63.7744 163.88 63.359 163.661 62.8718C163.442 62.3878 163.339 61.8819 163.354 61.3604C163.37 60.8357 163.511 60.3205 163.776 59.8146C164.042 59.3056 164.433 58.8527 164.95 58.4499C165.466 58.0471 166.116 57.7222 166.898 57.4725C167.68 57.2226 168.603 57.0977 169.667 57.0977C170.229 57.0977 170.742 57.1227 171.205 57.1758C171.668 57.2288 172.109 57.2975 172.528 57.3818C172.944 57.4662 173.345 57.5692 173.722 57.6879C174.101 57.8097 174.489 57.9377 174.887 58.0751L174.042 61.3729H173.861C173.786 60.7826 173.635 60.2362 173.417 59.7334C173.194 59.2338 172.916 58.8059 172.571 58.4467C172.231 58.0907 171.83 57.8097 171.374 57.6036C170.917 57.3975 170.411 57.2975 169.847 57.2975C168.828 57.2975 167.999 57.4787 167.351 57.8441C166.704 58.2094 166.241 58.6372 165.963 59.1307C165.682 59.6241 165.579 60.1331 165.656 60.6547C165.732 61.1793 165.991 61.5977 166.432 61.9162C166.811 62.1879 167.355 62.4127 168.062 62.5877C168.768 62.7625 169.516 62.9374 170.307 63.1123C171.099 63.2872 171.875 63.4933 172.643 63.7275C173.41 63.9617 174.045 64.2709 174.546 64.6487C175.014 65.0141 175.378 65.4606 175.628 65.9916C175.878 66.5224 175.997 67.0814 175.981 67.6653C175.966 68.2494 175.812 68.8333 175.525 69.4173C175.237 70.0012 174.793 70.5259 174.192 70.9881C173.592 71.4503 172.828 71.825 171.902 72.1154C170.977 72.4027 169.876 72.5464 168.6 72.5464C167.521 72.5464 166.526 72.4371 165.615 72.2154C164.706 71.9968 163.761 71.6345 162.792 71.1348L163.727 67.7903H163.84C163.915 68.4742 164.09 69.0926 164.365 69.6452C164.637 70.198 164.991 70.6727 165.425 71.0661C165.857 71.4597 166.367 71.7688 166.951 71.9874C167.536 72.2092 168.171 72.3184 168.854 72.3184C169.991 72.3184 170.905 72.103 171.587 71.6689C172.269 71.2348 172.76 70.7289 173.057 70.1449C173.354 69.5609 173.467 68.9739 173.398 68.3806C173.329 67.7903 173.103 67.325 172.725 66.994C172.375 66.6911 171.862 66.4506 171.187 66.2757C170.511 66.1008 169.785 65.9322 169.01 65.7636C168.234 65.598 167.461 65.3919 166.686 65.1484C165.91 64.9048 165.243 64.5644 164.68 64.1241H164.675Z" fill="#FF0000"/>
<path d="M80.2798 79.5579C80.3111 79.5704 80.3267 79.5955 80.3267 79.636C80.3267 79.6766 80.3174 79.7203 80.2986 79.7672C80.2798 79.8141 80.2642 79.8546 80.2548 79.889C79.9201 80.6697 79.5261 81.416 79.0694 82.1311C78.6128 82.8464 78.0654 83.4771 77.4242 84.0205C77.0865 84.3015 76.7267 84.5545 76.3514 84.7825C75.9761 85.0104 75.5695 85.201 75.1379 85.354C74.8626 85.4539 74.6156 85.5226 74.3904 85.5601C74.1651 85.5975 73.9056 85.6163 73.6054 85.6132C73.4364 85.6194 73.2676 85.6132 73.0986 85.6006C72.9297 85.5881 72.7578 85.557 72.5857 85.5132C71.785 85.2853 71.1908 84.7981 70.7998 84.0549C70.6684 83.7957 70.5652 83.5333 70.4902 83.2647C70.4151 82.9994 70.3588 82.7308 70.3243 82.4622C70.2337 81.7408 70.2305 81.0351 70.315 80.3386C70.4276 79.3705 70.6247 78.4399 70.9062 77.55C71.1876 76.6568 71.541 75.8012 71.9696 74.9768C72.4356 74.0618 73.0079 73.2248 73.6898 72.4628C74.162 71.9351 74.6969 71.4823 75.3036 71.1075C75.7541 70.8202 76.2545 70.636 76.805 70.5454C77.0489 70.5017 77.2928 70.5142 77.54 70.5766C77.9278 70.6704 78.1749 70.9077 78.2781 71.2887C78.3531 71.5978 78.3531 71.9819 78.2781 72.4379C78.203 72.8938 78.0842 73.3716 77.9246 73.8681C77.762 74.3647 77.5838 74.8268 77.3899 75.2515C77.1928 75.6762 77.0146 76.0135 76.8519 76.2665C76.805 76.3321 76.7456 76.3695 76.6767 76.3851C76.6079 76.3977 76.5329 76.3946 76.4484 76.3726C76.4046 76.3633 76.3702 76.3383 76.3452 76.3039C76.3202 76.2665 76.3139 76.2321 76.3296 76.2009C76.3452 76.1478 76.3639 76.0978 76.3921 76.051C76.4046 76.026 76.4171 75.9948 76.4327 75.9635C76.4922 75.8199 76.5641 75.6606 76.6423 75.4889C76.8144 75.1016 76.9957 74.68 77.1834 74.221C77.3711 73.7619 77.5244 73.3029 77.64 72.8469C77.7558 72.391 77.7996 71.9788 77.7683 71.6072C77.712 70.9826 77.393 70.7484 76.8175 70.9077C76.5641 70.9764 76.3264 71.07 76.1075 71.1856C75.8886 71.3012 75.679 71.4292 75.4757 71.576C75.0753 71.8664 74.7094 72.188 74.3778 72.544C74.0464 72.8969 73.746 73.2748 73.4709 73.6776C72.1134 75.645 71.2815 77.8778 70.9718 80.373C70.8811 81.0944 70.8842 81.8345 70.9781 82.584C71.0312 83.015 71.1563 83.4428 71.3565 83.8581C71.5598 84.2672 71.7975 84.5826 72.0759 84.8012C72.3543 85.0198 72.642 85.1603 72.9422 85.229C73.2425 85.2977 73.524 85.3164 73.7867 85.2853C74.2497 85.2321 74.6875 85.1103 75.0973 84.923C75.9104 84.5545 76.5735 84.161 77.0896 83.7425C77.6057 83.3241 78.0373 82.8869 78.3876 82.4279C78.7379 81.9688 79.0662 81.4878 79.3697 80.9851C79.4916 80.7852 79.598 80.5948 79.6887 80.4105C79.7951 80.1919 79.9327 79.9483 80.1047 79.6798C80.161 79.5955 80.2267 79.5579 80.2955 79.5673L80.2798 79.5579Z" fill="black"/>
<path d="M83.6672 79.9316C83.6047 80.0315 83.5359 80.1377 83.4608 80.2501C83.0949 80.7841 82.8009 81.1026 82.5788 81.2057C82.3568 81.3087 82.1722 81.3369 82.0221 81.29C81.8751 81.2432 81.7531 81.1589 81.6624 81.0433C81.5685 80.9278 81.506 80.7966 81.4685 80.6499C81.3152 81.0027 81.0462 81.1807 80.6678 81.1807C80.4551 81.1807 80.283 81.087 80.1517 80.8996C80.0204 80.7123 79.9358 80.478 79.9015 80.1971C79.8671 79.916 79.8921 79.6287 79.9828 79.3382C80.0047 79.2414 80.0641 79.1759 80.1611 79.1415C80.2268 79.1165 80.2987 79.1165 80.3707 79.1478C80.4426 79.179 80.4801 79.2258 80.4863 79.2883C80.4863 79.3539 80.4801 79.4164 80.4707 79.4787C80.4582 79.5256 80.4489 79.5725 80.4457 79.6162C80.4363 79.788 80.4395 79.9784 80.4551 80.1845C80.4707 80.3906 80.527 80.5687 80.6177 80.7154C80.7084 80.8341 80.8085 80.8466 80.9211 80.7591C81.0306 80.6717 81.1275 80.5343 81.2119 80.3501C81.2776 80.2033 81.3277 80.0565 81.3653 79.9129C81.4028 79.7692 81.4246 79.6568 81.4372 79.5756L81.4528 79.51C81.4685 79.4476 81.4872 79.3851 81.5028 79.3257C81.5279 79.2383 81.556 79.1509 81.5811 79.0666C81.6279 78.9041 81.7437 78.8354 81.9283 78.8605C82.0408 78.8698 82.1034 78.9261 82.1128 79.026C82.1221 79.1634 82.1253 79.3008 82.119 79.4351C82.1128 79.5787 82.1065 79.7193 82.0971 79.8567C82.0846 80.0565 82.0753 80.2532 82.0722 80.45C82.0658 80.7373 82.1878 80.8497 82.4318 80.7904C82.6758 80.731 82.9979 80.3813 83.3951 79.738C83.4327 79.6724 83.4608 79.5974 83.4733 79.51C83.4858 79.4226 83.5265 79.3289 83.5953 79.2227C83.686 79.0947 83.8392 79.0197 84.0582 79.001C84.1645 78.9917 84.2646 78.9979 84.3554 79.0166C84.4492 79.0384 84.5336 79.0822 84.6118 79.1509C84.6274 79.1665 84.64 79.1852 84.6493 79.2071C84.6587 79.229 84.6525 79.2539 84.64 79.2852C84.6149 79.332 84.5743 79.357 84.5211 79.357C84.4836 79.357 84.446 79.3508 84.4085 79.3413C84.371 79.3257 84.3365 79.3101 84.3053 79.2946L84.2427 79.2633C84.1739 79.2383 84.1207 79.2414 84.0832 79.2726C84.0457 79.307 84.0269 79.357 84.0269 79.4288C84.0332 79.5506 84.0832 79.6817 84.177 79.8223C84.2709 79.9628 84.3679 80.0909 84.4617 80.2064C84.4992 80.247 84.5336 80.2876 84.5587 80.325C84.5837 80.3501 84.6556 80.347 84.7681 80.3126C84.8808 80.2783 85.0872 80.1814 85.3906 80.0221C85.6909 79.8629 85.8441 79.8129 85.8441 79.866C85.8441 79.9191 85.7284 80.019 85.4938 80.1596C85.2592 80.3001 85.0872 80.4062 84.9777 80.478C84.8683 80.5499 84.812 80.5936 84.812 80.6092C84.8338 80.6561 84.8558 80.7373 84.8808 80.8497C84.9058 80.9621 84.9152 81.0839 84.9089 81.2182C84.9026 81.3494 84.8589 81.468 84.7807 81.5711C84.7025 81.6741 84.568 81.7366 84.3835 81.7585C84.199 81.7741 84.0332 81.7459 83.8862 81.6741C83.7392 81.6023 83.6485 81.4993 83.6109 81.365C83.5734 81.2307 83.6172 81.0746 83.7454 80.8934C83.8298 80.7935 83.93 80.7061 84.0488 80.6311C84.0895 80.6061 84.1302 80.5749 84.1739 80.5436C84.0332 80.3906 83.8987 80.2314 83.7704 80.069C83.7329 80.0221 83.6985 79.9753 83.6672 79.9347V79.9316ZM84.2302 81.4837C84.299 81.4774 84.346 81.4399 84.3679 81.3681C84.3897 81.2963 84.396 81.2182 84.3928 81.1308C84.3866 81.0433 84.3803 80.9809 84.3772 80.9372C84.3679 80.9122 84.3522 80.8934 84.3272 80.8872C84.3022 80.8809 84.2803 80.8809 84.2583 80.8903C84.1802 80.9527 84.1207 81.0308 84.0832 81.1277C84.0457 81.2244 84.0488 81.3087 84.0926 81.3806C84.1082 81.4056 84.1271 81.4306 84.1489 81.4493C84.1708 81.468 84.2021 81.4806 84.2333 81.4868L84.2302 81.4837Z" fill="black"/>
<path d="M88.243 80.0986C88.3743 79.9706 88.4338 79.9394 88.415 80.0018C88.3963 80.0643 88.3243 80.1798 88.1961 80.3485C88.0678 80.5171 87.9115 80.6951 87.7207 80.8918C87.5298 81.0854 87.3297 81.2541 87.1171 81.3978C86.9044 81.5414 86.7042 81.6195 86.5134 81.6288C86.2788 81.6288 86.0942 81.5601 85.9535 81.4227C85.8128 81.2853 85.7127 81.101 85.6533 80.8762C85.5938 80.6514 85.5688 80.4047 85.5782 80.1393C85.5907 79.8426 85.6001 79.5491 85.6094 79.2523C85.6158 79.1024 85.6189 78.9588 85.6252 78.8151C85.6376 78.5778 85.647 78.3404 85.6501 78.1031C85.6564 78.0282 85.6439 77.9657 85.6127 77.9158C85.5845 77.8658 85.5313 77.8377 85.4562 77.8314C85.3718 77.8252 85.2655 77.8252 85.1403 77.8252H84.8557C84.7462 77.8127 84.6711 77.7847 84.6337 77.7378C84.5961 77.6909 84.6274 77.6441 84.7212 77.5941C84.79 77.5692 84.8682 77.5535 84.9651 77.5504C85.059 77.5504 85.1528 77.5504 85.2435 77.5535C85.2998 77.5597 85.353 77.5597 85.3936 77.5597C85.5344 77.5597 85.622 77.5379 85.6533 77.4942C85.6846 77.4505 85.7033 77.3631 85.7096 77.2288C85.7189 77.0882 85.7252 76.9477 85.7314 76.8072C85.7377 76.7322 85.7408 76.6573 85.7502 76.5855C85.7502 76.4761 85.7784 76.3762 85.8378 76.2857C85.9004 76.2013 85.9786 76.1701 86.0755 76.1888C86.1599 76.2107 86.2069 76.2638 86.2163 76.3481C86.2225 76.4886 86.2256 76.6291 86.2256 76.7697C86.2319 76.8477 86.2319 76.929 86.2256 77.0071C86.2256 77.0914 86.2256 77.1788 86.2319 77.2693C86.2256 77.3942 86.2412 77.4723 86.2757 77.5067C86.31 77.541 86.3915 77.5566 86.5259 77.5566H87.167C87.2641 77.5566 87.5487 77.5504 88.024 77.5379C88.4995 77.5254 88.756 77.5628 88.7934 77.6535C88.831 77.744 88.5308 77.7971 87.8896 77.8096C87.5017 77.8314 87.2015 77.8408 86.9919 77.8408C86.8512 77.8345 86.7229 77.8345 86.6104 77.8345C86.4196 77.8345 86.3038 77.869 86.2601 77.9345C86.2163 78.0001 86.1944 78.1344 86.2006 78.3311C86.1944 78.5029 86.1881 78.709 86.1756 78.9494C86.1443 79.446 86.1287 79.9518 86.1287 80.4703C86.1412 80.8263 86.2038 81.0574 86.3195 81.1604C86.4352 81.2666 86.5853 81.2853 86.7699 81.2197C86.9544 81.1541 87.1545 81.0355 87.3703 80.8669C87.5862 80.6983 87.7988 80.5171 88.0115 80.3203C88.0585 80.2611 88.1117 80.2048 88.1774 80.1517C88.1992 80.133 88.218 80.1142 88.2398 80.0986H88.243Z" fill="black"/>
<path d="M90.9668 79.8596C91.0043 79.8221 91.023 79.869 91.023 79.9907C91.023 80.1156 90.9136 80.2874 90.6853 80.5091C90.457 80.7309 90.2224 80.837 89.9816 80.8245C89.9284 80.8183 89.8846 80.8245 89.8471 80.837C89.8095 80.8495 89.7783 80.8807 89.7502 80.9276C89.7251 80.9713 89.6938 81.0088 89.6563 81.0462L89.65 81.0525C89.4999 81.2118 89.3248 81.3148 89.1246 81.3648C88.9244 81.4147 88.7336 81.3991 88.5522 81.3179C88.3708 81.2367 88.2425 81.0806 88.1612 80.8527C88.1049 80.6466 88.0987 80.4404 88.1456 80.2374C88.1863 80.0563 88.2519 79.8877 88.3427 79.7284C88.4521 79.5161 88.596 79.3693 88.7743 79.2787C88.9525 79.1913 89.1527 79.1413 89.3748 79.1319C89.7063 79.1163 89.9159 79.2724 90.0034 79.6004C90.0566 79.7909 90.0691 79.9813 90.0441 80.1781C90.0379 80.2218 90.0284 80.2686 90.0191 80.3155C90.0097 80.3467 90.0003 80.378 89.9941 80.4092C89.9847 80.5154 90.0317 80.5622 90.1317 80.5528C90.4101 80.506 90.6884 80.2718 90.9637 79.8533L90.9668 79.8596ZM89.0057 81.0869C89.1778 81.0088 89.2966 80.8745 89.3623 80.684C89.0777 80.5029 88.89 80.2437 88.793 79.9064C88.7055 80.0656 88.6492 80.2499 88.6304 80.4623C88.6116 80.6746 88.6304 80.8495 88.693 80.9869C88.7555 81.1243 88.8587 81.1587 89.0057 81.09V81.0869ZM89.4905 80.3093C89.5375 80.2406 89.5625 80.1594 89.5718 80.0594C89.5812 79.9626 89.575 79.8627 89.5562 79.7659C89.5375 79.6691 89.5124 79.591 89.4812 79.5379C89.4498 79.4817 89.4155 79.4661 89.3779 79.4879C89.3122 79.5441 89.2778 79.6285 89.2685 79.7378C89.2622 79.847 89.2778 79.9533 89.3184 80.0625C89.3591 80.1719 89.4155 80.253 89.4905 80.3124V80.3093Z" fill="black"/>
<path d="M95.3019 80.5027V80.4965C95.3237 80.4746 95.3739 80.4278 95.4581 80.3528C95.5395 80.281 95.6275 80.2092 95.7146 80.1436C95.8055 80.078 95.8717 80.0437 95.9087 80.0406C95.9465 80.0375 95.9399 80.0968 95.8803 80.2185C95.8717 80.2342 95.8557 80.2561 95.8367 80.2779C95.8178 80.2998 95.7998 80.3216 95.7866 80.3435C95.7809 80.3497 95.7743 80.3528 95.7686 80.3622C95.3994 80.7588 95.1079 81.0336 94.8987 81.1835C94.6895 81.3365 94.4823 81.4084 94.2797 81.399C94.0666 81.3772 93.9259 81.296 93.8508 81.1523C93.7758 81.0086 93.7414 80.8369 93.7414 80.6308C93.7414 80.4247 93.7601 80.2185 93.7914 80.0062C93.8258 79.7876 93.8383 79.6003 93.8321 79.4472C93.8258 79.2942 93.7726 79.2005 93.6726 79.1756C93.5787 79.1693 93.4818 79.2474 93.3848 79.4066C93.2847 79.569 93.1909 79.7564 93.1033 79.9719C93.0157 80.1842 92.9406 80.3748 92.8813 80.5371C92.85 80.6245 92.8281 80.6901 92.8125 80.7276C92.7687 80.8119 92.7092 80.8682 92.6279 80.8931C92.5497 80.9181 92.4653 80.9149 92.3745 80.8775C92.3214 80.8431 92.2901 80.7995 92.2776 80.7401C92.262 80.6121 92.2589 80.4809 92.262 80.3435C92.2682 80.2561 92.2682 80.1686 92.262 80.0842V79.8782C92.262 79.8376 92.2589 79.8001 92.2495 79.7658C92.2401 79.7315 92.2244 79.7158 92.1963 79.7158C92.1556 79.7095 92.1056 79.7595 92.0462 79.8625C91.9867 79.9656 91.9273 80.0875 91.8679 80.2311C91.8084 80.3748 91.7522 80.5027 91.7052 80.6183C91.6614 80.7182 91.6333 80.7869 91.6177 80.8244C91.6114 80.84 91.6021 80.8587 91.5926 80.8744C91.5457 80.9681 91.4957 81.0617 91.4487 81.1586C91.4081 81.2366 91.3393 81.2834 91.2423 81.2991C91.0485 81.3334 90.9421 81.2522 90.9264 81.0617C90.9108 80.5714 90.8983 80.0811 90.8857 79.5877C90.8857 79.4598 90.964 79.416 91.1235 79.4535C91.283 79.4909 91.3706 79.5721 91.3862 79.7002C91.4019 79.9063 91.4237 80.0124 91.4582 80.0124C91.4894 80.0124 91.5582 79.925 91.6583 79.7377C91.7115 79.6502 91.7678 79.5596 91.8241 79.4691C91.8929 79.3504 91.9836 79.2443 92.1025 79.1505C92.2213 79.0725 92.3402 79.0475 92.4496 79.0818C92.5622 79.1131 92.6498 79.1974 92.7123 79.3348C92.7374 79.391 92.7655 79.4222 92.7905 79.4285C92.8156 79.4347 92.8437 79.4222 92.8687 79.391C92.8938 79.3629 92.9219 79.3286 92.947 79.2879C92.9688 79.2443 92.9938 79.2068 93.0188 79.1756C93.169 79.0131 93.3441 78.8976 93.5506 78.8352C93.757 78.7727 93.9416 78.7727 94.1105 78.8414C94.2797 78.9101 94.3734 79.06 94.4008 79.2942C94.4103 79.5721 94.3923 79.8563 94.345 80.1467C94.3261 80.2872 94.3109 80.4184 94.2977 80.5434C94.2892 80.8151 94.3384 80.9618 94.4453 80.9899C94.5542 81.0149 94.6857 80.9743 94.8419 80.8618C94.999 80.7495 95.1486 80.6277 95.2963 80.4965L95.3019 80.5027Z" fill="black"/>
<path d="M113.724 69.9537C113.93 70.0849 113.999 70.2723 113.934 70.5096C113.89 70.6252 113.834 70.7313 113.765 70.8344C113.649 70.9968 113.511 71.1435 113.352 71.2716C112.611 71.8993 111.76 72.2896 110.796 72.4333C110.583 72.4677 110.374 72.5051 110.161 72.5457C110.065 72.5676 109.974 72.5613 109.892 72.5301C109.839 72.5082 109.815 72.4739 109.815 72.4239C109.818 72.4021 109.827 72.3802 109.839 72.3614C109.849 72.3396 109.864 72.3271 109.877 72.324C109.945 72.2865 110.017 72.2584 110.093 72.246C110.187 72.2303 110.28 72.2116 110.377 72.196C110.446 72.1897 110.518 72.1804 110.59 72.1679C111.065 72.0804 111.503 71.9211 111.901 71.6901C112.297 71.459 112.664 71.1716 113.005 70.8282C113.105 70.7313 113.182 70.6189 113.236 70.4847C113.292 70.3254 113.249 70.2129 113.102 70.1474C112.911 70.0787 112.714 70.0412 112.513 70.0349H111.456C110.828 70.0349 110.199 70.0693 109.576 70.1349C108.951 70.2005 108.329 70.2785 107.706 70.366C106.715 70.494 105.73 70.647 104.744 70.8282C104.751 70.9593 104.751 71.0935 104.751 71.2247V84.1377C104.751 84.5499 104.744 84.959 104.729 85.3744C104.729 85.5961 104.622 85.6866 104.41 85.6523C104.303 85.6366 104.243 85.5774 104.225 85.4805C104.225 85.4368 104.226 85.3931 104.219 85.3524C104.204 85.1527 104.194 84.9497 104.194 84.7435C104.188 83.4132 104.188 82.0797 104.188 80.7431V70.9343C104.188 70.9343 104.166 70.9437 104.156 70.9437C104.125 70.9499 104.097 70.953 104.068 70.9593C103.284 71.1124 102.509 71.2965 101.742 71.5058C100.975 71.715 100.219 71.9649 99.474 72.2522C99.208 72.3521 98.9486 72.4614 98.6893 72.5831C98.6107 72.6207 98.5331 72.655 98.4612 72.6894C98.3173 72.7425 98.2009 72.8361 98.1166 72.9735C98.0608 73.0578 97.9728 73.1016 97.8544 73.1047C97.738 73.1047 97.6349 73.0734 97.544 73.0079C97.4758 72.9423 97.4664 72.8736 97.5194 72.7986C97.5752 72.7206 97.6472 72.6518 97.7286 72.5957C97.81 72.5395 97.898 72.4895 97.9889 72.4395C98.4422 72.2084 98.9051 72.0085 99.3774 71.8368C100.579 71.3996 101.798 71.0468 103.043 70.7751C103.425 70.697 103.806 70.6189 104.188 70.5471C104.19 70.4691 104.197 70.3909 104.204 70.316C104.219 70.2161 104.269 70.1442 104.35 70.1067C104.432 70.0693 104.523 70.0724 104.626 70.1193C104.701 70.1598 104.735 70.2223 104.732 70.3097C104.732 70.3566 104.732 70.4035 104.739 70.4503C105.651 70.291 106.568 70.1474 107.49 70.0224C108.448 69.885 109.408 69.7789 110.371 69.7039C111.122 69.6508 111.872 69.6446 112.626 69.682C112.87 69.6977 113.111 69.7351 113.349 69.7945C113.486 69.8257 113.611 69.8819 113.727 69.96L113.724 69.9537Z" fill="black"/>
<path d="M108.116 80.3701C108.041 80.5231 107.916 80.6948 107.735 80.8822C107.554 81.0695 107.353 81.1882 107.125 81.2382C106.897 81.2882 106.681 81.21 106.475 81.0039C106.396 80.9134 106.337 80.8072 106.299 80.6885C106.262 80.5698 106.249 80.4512 106.259 80.3357V80.217C106.259 80.0952 106.265 79.9516 106.274 79.7922C106.284 79.6299 106.308 79.4862 106.346 79.3551C106.384 79.2239 106.443 79.1489 106.521 79.1209C106.749 79.0646 106.874 79.1427 106.893 79.3582C106.893 79.4269 106.893 79.4987 106.887 79.5674C106.881 79.6049 106.881 79.6361 106.881 79.6674C106.874 79.7673 106.871 79.8704 106.866 79.9703C106.866 80.0484 106.862 80.1295 106.856 80.2076C106.85 80.5542 106.928 80.7635 107.091 80.8291C107.25 80.8946 107.434 80.8259 107.641 80.6198C107.847 80.4137 107.982 80.242 108.048 80.1046C108.11 79.9672 108.157 79.9391 108.185 80.0172C108.213 80.0952 108.192 80.2138 108.116 80.3669V80.3701ZM106.847 78.3808C106.815 78.4058 106.778 78.4245 106.734 78.4307C106.691 78.4369 106.65 78.4338 106.615 78.4213C106.59 78.3995 106.571 78.3714 106.565 78.3371C106.559 78.3027 106.555 78.2621 106.555 78.2121C106.555 78.2028 106.555 78.1934 106.562 78.184C106.568 78.1403 106.578 78.0965 106.593 78.0529C106.64 77.9373 106.74 77.8843 106.893 77.8936C106.947 77.8999 106.987 77.9217 107.019 77.9592C107.05 77.9966 107.056 78.0373 107.037 78.0841C107 78.2028 106.938 78.2995 106.847 78.3808Z" fill="black"/>
<path d="M110.622 80.1559C110.662 80.056 110.706 80.0091 110.756 80.0091C110.806 80.0091 110.818 80.0591 110.803 80.1559C110.725 80.3995 110.628 80.6368 110.518 80.8585C110.409 81.0834 110.259 81.2833 110.068 81.4613C109.924 81.6049 109.753 81.6986 109.552 81.7392C109.28 81.7767 109.055 81.7455 108.88 81.6424C108.705 81.5394 108.564 81.3895 108.461 81.1989C108.357 81.0053 108.279 80.7961 108.229 80.565C108.179 80.3371 108.145 80.1122 108.132 79.8968C108.094 79.4876 108.066 78.9536 108.048 78.2853C108.029 77.6202 108.035 76.9176 108.066 76.1743C108.097 75.4311 108.169 74.744 108.286 74.1101C108.398 73.4761 108.567 72.9859 108.789 72.6361C108.917 72.4644 109.065 72.3801 109.233 72.377C109.402 72.377 109.552 72.4519 109.686 72.6111C109.774 72.733 109.843 72.864 109.89 73.0015C109.936 73.1389 109.965 73.2763 109.981 73.4199C110.027 73.9071 110.021 74.4223 109.962 74.9626C109.902 75.5029 109.806 76.0837 109.677 76.6959C109.545 77.311 109.393 77.8513 109.211 78.3196C109.03 78.7881 108.88 79.1597 108.761 79.4314C108.695 79.5408 108.67 79.7094 108.689 79.9311C108.711 80.1747 108.758 80.4276 108.826 80.6899C108.895 80.9523 108.995 81.1614 109.123 81.3177C109.242 81.4456 109.377 81.4863 109.527 81.4363C109.677 81.3895 109.825 81.2864 109.971 81.1334C110.118 80.9804 110.25 80.8118 110.362 80.6306C110.475 80.4494 110.562 80.2902 110.622 80.1497V80.1559ZM108.698 76.4709C108.682 76.6303 108.67 76.8676 108.658 77.1892C108.645 77.5109 108.633 77.8357 108.62 78.1666C108.61 78.5351 108.598 78.8256 108.588 79.0317C108.708 78.7663 108.842 78.3821 108.998 77.8794C109.154 77.3766 109.298 76.7802 109.427 76.0962C109.555 75.4123 109.64 74.6722 109.677 73.8728C109.655 73.4074 109.599 73.0921 109.508 72.9265C109.418 72.761 109.32 72.7454 109.214 72.8828C109.108 73.0203 109.024 73.3075 108.96 73.7478C108.864 74.4754 108.789 75.203 108.739 75.9339C108.723 76.1149 108.711 76.293 108.698 76.4709Z" fill="black"/>
<path d="M114.059 80.0912C114.112 80.06 114.162 80.0351 114.215 80.0194C114.265 80.0038 114.3 80.0038 114.316 80.0225C114.331 80.0413 114.309 80.085 114.253 80.1506C114.071 80.3567 113.856 80.5472 113.606 80.7189C113.355 80.8907 113.096 81.0344 112.832 81.153C112.626 81.2467 112.407 81.3217 112.179 81.3747C111.951 81.4309 111.722 81.4434 111.497 81.4122C111.272 81.3809 111.069 81.281 110.881 81.1124C110.6 80.8532 110.484 80.5347 110.53 80.163C110.571 79.8664 110.688 79.6135 110.878 79.4042C111.069 79.1981 111.309 79.0545 111.6 78.9827C111.844 78.9295 112.086 78.9233 112.329 78.9638C112.439 78.9795 112.542 79.017 112.633 79.0763C112.717 79.1419 112.764 79.2168 112.77 79.3043C112.779 79.3917 112.745 79.4729 112.671 79.5541C112.517 79.6915 112.338 79.7727 112.135 79.7977C111.91 79.8352 111.681 79.8601 111.453 79.8695C111.344 79.8695 111.266 79.8914 111.222 79.9382C111.178 79.9851 111.15 80.0631 111.144 80.1724C111.106 80.4722 111.203 80.7189 111.432 80.9063C111.573 81.0187 111.744 81.0687 111.947 81.05C112.151 81.0344 112.367 80.9781 112.595 80.8844C112.823 80.7907 113.045 80.6846 113.264 80.5597C113.484 80.4347 113.68 80.3192 113.856 80.2099C113.93 80.163 113.997 80.1225 114.052 80.0912H114.059ZM111.551 79.451C111.551 79.451 111.547 79.4573 111.541 79.4573C111.532 79.4666 111.52 79.4792 111.503 79.4917C111.487 79.5041 111.472 79.5166 111.46 79.5322C111.447 79.5448 111.441 79.5541 111.441 79.5604C111.447 79.576 111.487 79.5822 111.573 79.5728C111.654 79.5635 111.744 79.551 111.841 79.5291C111.938 79.5073 112.023 79.4823 112.088 79.4448C112.154 79.4105 112.173 79.3698 112.148 79.3198C112.135 79.3043 112.12 79.2918 112.104 79.2824C112.086 79.2731 112.067 79.2637 112.045 79.2606C111.947 79.2606 111.86 79.2793 111.782 79.3167C111.703 79.3543 111.626 79.398 111.554 79.451H111.551Z" fill="black"/>
<path d="M120.809 79.5991C120.887 79.5586 120.968 79.5273 121.05 79.5086C121.131 79.4899 121.196 79.4836 121.244 79.493C121.291 79.5023 121.306 79.521 121.287 79.5523C121.268 79.5835 121.2 79.6304 121.078 79.6897C120.874 79.7803 120.656 79.9083 120.424 80.0769C120.193 80.2455 119.989 80.436 119.808 80.6484C119.627 80.8608 119.514 81.0856 119.467 81.323C119.282 82.3472 119.011 83.3528 118.657 84.3334C118.498 84.7955 118.297 85.2421 118.053 85.6731C117.947 85.8636 117.822 86.0353 117.675 86.1883C117.587 86.282 117.481 86.3382 117.356 86.3601C117.149 86.3851 116.993 86.3695 116.887 86.3039C116.781 86.2383 116.705 86.1009 116.655 85.8854C116.611 85.6262 116.618 85.3671 116.671 85.1078C116.777 84.5332 116.962 83.9867 117.228 83.4621C117.434 83.0405 117.662 82.6314 117.916 82.2411C118.166 81.8507 118.45 81.4791 118.769 81.1325C118.848 81.045 118.904 80.9513 118.939 80.8514C118.973 80.7514 118.992 80.6515 119.001 80.5454C119.011 80.4142 119.023 80.2799 119.042 80.1488C119.11 79.5991 119.16 79.0432 119.192 78.4843C119.258 77.307 119.236 76.1296 119.12 74.9524C119.057 74.3278 118.929 73.7157 118.738 73.1161C118.654 72.8351 118.525 72.5758 118.354 72.3385C118.307 72.2761 118.254 72.2198 118.203 72.1667C118.066 72.0231 117.935 71.945 117.81 71.9294C117.685 71.9138 117.544 71.9701 117.39 72.0855C116.874 72.4666 116.558 72.9725 116.449 73.6064C116.412 73.8406 116.286 73.9218 116.074 73.85C115.973 73.8125 115.92 73.747 115.914 73.6438C115.908 73.5564 115.918 73.4659 115.939 73.3753C116.086 72.8257 116.367 72.3604 116.786 71.9825C116.971 71.8076 117.177 71.6921 117.403 71.639C117.628 71.5859 117.865 71.5828 118.116 71.6234C118.256 71.6484 118.385 71.7015 118.494 71.7795C118.604 71.8576 118.707 71.9481 118.803 72.0544C119.038 72.3292 119.21 72.6352 119.32 72.9725C119.442 73.316 119.536 73.6626 119.604 74.0154C119.67 74.3683 119.721 74.7212 119.752 75.0804C119.789 75.5957 119.817 76.0766 119.839 76.5325C119.846 76.7042 119.851 76.8698 119.865 77.029C119.848 78.0221 119.793 78.934 119.695 79.7616C119.686 79.8677 119.68 79.9739 119.673 80.0769C119.673 80.0988 119.673 80.1207 119.68 80.1425C119.686 80.1643 119.702 80.1768 119.726 80.1831C119.742 80.1894 119.761 80.1894 119.776 80.1831C119.793 80.1768 119.805 80.1737 119.814 80.1675C120.036 80.0145 120.249 79.8895 120.449 79.7928C120.562 79.7396 120.683 79.6772 120.819 79.6022L120.809 79.5991ZM118.647 82.3815C118.66 82.3348 118.669 82.2817 118.673 82.2285C118.673 82.2067 118.673 82.1818 118.679 82.1567C118.372 82.544 118.103 82.9468 117.875 83.3652C117.647 83.7837 117.465 84.2304 117.328 84.6987C117.281 84.8705 117.24 85.0391 117.212 85.2108C117.184 85.3827 117.177 85.5544 117.193 85.7262C117.193 85.7511 117.199 85.7761 117.209 85.798C117.218 85.8198 117.237 85.8323 117.262 85.8386C117.309 85.8479 117.347 85.8323 117.374 85.7918C117.549 85.5419 117.697 85.2764 117.812 84.9923C117.997 84.5707 118.156 84.1397 118.288 83.7057C118.419 83.2716 118.538 82.8282 118.644 82.3784L118.647 82.3815Z" fill="black"/>
<path d="M124.296 80.4465C124.481 80.153 124.59 79.9687 124.627 79.8875C124.662 79.8094 124.69 79.8126 124.709 79.8969C124.728 79.9812 124.668 80.1779 124.531 80.4808C124.39 80.7838 124.217 81.018 124.011 81.1834C123.805 81.349 123.611 81.4083 123.433 81.3646C123.255 81.3209 123.126 81.196 123.048 80.993C122.97 80.7869 122.948 80.5277 122.979 80.2154C122.979 80.2092 122.979 80.1966 122.985 80.1748C122.992 80.1217 122.998 80.0436 123.013 79.9406C123.026 79.8375 123.035 79.7314 123.042 79.6189C123.048 79.5065 123.042 79.4159 123.032 79.3441C123.02 79.2723 122.985 79.2473 122.932 79.2691C122.804 79.3379 122.679 79.4753 122.56 79.6783C122.438 79.8813 122.329 80.0936 122.229 80.3153C122.128 80.537 122.059 80.7182 122.019 80.8525C122.003 80.8962 121.987 80.9399 121.972 80.9899C121.95 81.0523 121.925 81.1147 121.9 81.1772C121.831 81.3584 121.709 81.4271 121.534 81.3864C121.437 81.3646 121.381 81.3053 121.366 81.2085C121.359 81.1336 121.359 81.0648 121.359 80.9961C121.359 80.9524 121.359 80.9117 121.353 80.8774C121.344 80.3434 121.33 79.8063 121.312 79.266C121.318 79.2036 121.344 79.1599 121.397 79.138C121.447 79.113 121.506 79.1005 121.578 79.1005C121.631 79.1005 121.682 79.1161 121.728 79.1443C121.775 79.1724 121.803 79.2348 121.816 79.3254C121.822 79.3567 121.822 79.3878 121.822 79.419C121.828 79.4347 121.828 79.4503 121.828 79.4659C121.838 79.5408 121.844 79.6033 121.844 79.6564C121.844 79.7345 121.85 79.7907 121.86 79.8188C121.869 79.8469 121.894 79.8469 121.929 79.8157C121.963 79.7845 122.019 79.7095 122.1 79.594C122.238 79.3816 122.407 79.2036 122.61 79.0568C122.795 78.9256 122.998 78.8695 123.22 78.8913C123.411 78.91 123.539 79.01 123.601 79.1911C123.627 79.2816 123.642 79.3754 123.642 79.4659C123.642 79.5564 123.636 79.6502 123.624 79.7438C123.617 79.8406 123.611 79.9375 123.601 80.0405C123.596 80.0718 123.589 80.103 123.583 80.1342C123.552 80.4777 123.561 80.7088 123.614 80.8243C123.667 80.9399 123.749 80.9805 123.855 80.9399C123.961 80.8993 124.109 80.7338 124.296 80.4403V80.4465Z" fill="black"/>
<path d="M126.679 79.8646C126.679 79.9208 126.564 80.0177 126.329 80.1582C126.094 80.2988 125.922 80.4049 125.813 80.4767C125.703 80.5485 125.648 80.5923 125.648 80.6079C125.669 80.6548 125.691 80.736 125.716 80.8483C125.741 80.9608 125.751 81.0826 125.744 81.2169C125.738 81.348 125.694 81.4667 125.615 81.5697C125.538 81.6728 125.403 81.7353 125.219 81.7571C125.034 81.7727 124.869 81.7446 124.721 81.6728C124.577 81.601 124.483 81.4979 124.446 81.3636C124.409 81.2294 124.456 81.0731 124.581 80.8921C124.665 80.7921 124.765 80.7047 124.884 80.6297C124.924 80.6048 124.965 80.5735 125.009 80.5423C124.869 80.3893 124.734 80.2301 124.606 80.0707C124.478 79.9115 124.396 79.7647 124.361 79.6398C124.324 79.493 124.349 79.3556 124.437 79.2244C124.524 79.0933 124.677 79.0183 124.893 78.9965C125 78.9871 125.1 78.9934 125.19 79.0121C125.281 79.0309 125.368 79.0777 125.447 79.1464C125.463 79.162 125.475 79.1808 125.485 79.2026C125.494 79.2244 125.488 79.2495 125.475 79.2807C125.45 79.3275 125.409 79.3525 125.356 79.3525C125.319 79.3525 125.281 79.3462 125.243 79.3369C125.207 79.3213 125.172 79.3057 125.14 79.29C125.119 79.2775 125.1 79.2682 125.078 79.2588C125.009 79.2338 124.956 79.237 124.919 79.2682C124.881 79.3025 124.862 79.3525 124.862 79.4243C124.869 79.5461 124.919 79.6773 125.012 79.8178C125.106 79.9584 125.203 80.0864 125.296 80.2019C125.334 80.2425 125.368 80.2831 125.394 80.3206C125.419 80.3456 125.491 80.3424 125.603 80.3081C125.716 80.2737 125.922 80.177 126.226 80.0177C126.529 79.8584 126.679 79.8085 126.679 79.8615V79.8646ZM125.066 81.4854C125.135 81.4791 125.181 81.4417 125.203 81.3699C125.225 81.2981 125.231 81.2199 125.228 81.1325C125.222 81.0451 125.216 80.9826 125.212 80.939C125.203 80.9139 125.188 80.8952 125.162 80.889C125.137 80.8827 125.116 80.8827 125.094 80.8921C125.015 80.9545 124.956 81.0326 124.919 81.1294C124.881 81.2263 124.884 81.3106 124.928 81.3824C124.943 81.4073 124.962 81.4324 124.984 81.4511C125.006 81.4698 125.037 81.4823 125.068 81.4885L125.066 81.4854Z" fill="black"/>
<path d="M129.077 80.0986C129.209 79.9706 129.269 79.9394 129.25 80.0018C129.231 80.0643 129.159 80.1798 129.031 80.3485C128.902 80.5171 128.743 80.6951 128.556 80.8918C128.367 81.0886 128.165 81.2541 127.952 81.3978C127.739 81.5414 127.539 81.6195 127.348 81.6288C127.113 81.6288 126.929 81.5601 126.789 81.4227C126.648 81.2853 126.547 81.101 126.488 80.8762C126.429 80.6483 126.403 80.4047 126.413 80.1393C126.425 79.8426 126.435 79.5491 126.444 79.2523C126.451 79.1024 126.454 78.9588 126.46 78.8151C126.472 78.5778 126.482 78.3404 126.485 78.1031C126.491 78.0282 126.478 77.9657 126.447 77.9158C126.42 77.8658 126.366 77.8377 126.291 77.8314C126.207 77.8252 126.101 77.8252 125.972 77.8252H125.687C125.578 77.8127 125.503 77.7847 125.465 77.7378C125.428 77.6909 125.456 77.6441 125.552 77.5941C125.622 77.5692 125.7 77.5535 125.797 77.5504C125.89 77.5504 125.984 77.5504 126.075 77.5535C126.132 77.5597 126.185 77.5597 126.225 77.5597C126.366 77.5597 126.454 77.5379 126.485 77.4942C126.516 77.4505 126.535 77.3631 126.542 77.2288C126.55 77.0882 126.557 76.9477 126.563 76.8072C126.569 76.7322 126.573 76.6573 126.582 76.5855C126.582 76.4761 126.61 76.3762 126.669 76.2857C126.732 76.2013 126.81 76.1701 126.907 76.1888C126.991 76.2107 127.039 76.2638 127.048 76.3481C127.054 76.4886 127.057 76.6291 127.057 76.7697C127.063 76.8477 127.063 76.929 127.057 77.0071C127.057 77.0914 127.057 77.1788 127.063 77.2693C127.057 77.3942 127.073 77.4723 127.108 77.5067C127.142 77.5379 127.223 77.5566 127.357 77.5566H127.998C128.096 77.5566 128.381 77.5504 128.856 77.5379C129.331 77.5254 129.588 77.5628 129.625 77.6535C129.662 77.744 129.362 77.7971 128.721 77.8096C128.333 77.8314 128.033 77.8408 127.823 77.8408C127.683 77.8345 127.554 77.8345 127.442 77.8345C127.251 77.8345 127.135 77.869 127.092 77.9345C127.048 78.0001 127.026 78.1344 127.032 78.3311C127.026 78.5029 127.02 78.709 127.007 78.9494C126.976 79.446 126.96 79.9518 126.96 80.4703C126.973 80.8263 127.036 81.0574 127.151 81.1604C127.267 81.2666 127.417 81.2853 127.602 81.2197C127.786 81.1541 127.986 81.0355 128.202 80.8669C128.418 80.6983 128.631 80.5171 128.844 80.3203C128.89 80.2611 128.943 80.2048 129.009 80.1517C129.031 80.133 129.05 80.1142 129.072 80.0986H129.077Z" fill="black"/>
<path d="M133.112 79.979C133.047 80.182 132.915 80.4131 132.718 80.6723C132.522 80.9315 132.277 81.1002 131.983 81.1751C131.69 81.2501 131.436 81.2407 131.223 81.1438C131.011 81.0502 130.892 80.7942 130.87 80.3819C130.626 80.8534 130.395 81.1533 130.175 81.2844C129.956 81.4155 129.725 81.4655 129.487 81.4343C129.218 81.3906 129.036 81.2875 128.94 81.122C128.846 80.9565 128.812 80.766 128.843 80.5474C128.875 80.3288 128.94 80.1227 129.04 79.9228C129.118 79.7729 129.228 79.6355 129.369 79.5075C129.509 79.3795 129.656 79.2795 129.81 79.2077C130 79.1109 130.191 79.0672 130.381 79.0703C130.575 79.0765 130.779 79.139 130.998 79.2608C131.004 79.267 131.004 79.2608 131.004 79.2452C131.004 79.2233 131.011 79.1952 131.019 79.164C131.029 79.1327 131.048 79.1047 131.076 79.0859C131.148 79.0329 131.232 79.0078 131.333 79.0078C131.433 79.0078 131.508 79.0578 131.561 79.1546C131.57 79.2826 131.558 79.4451 131.52 79.6418C131.442 80.0727 131.442 80.385 131.52 80.5755C131.599 80.766 131.74 80.8534 131.939 80.8409C132.139 80.8285 132.399 80.6286 132.721 80.2476C133.043 79.8666 133.169 79.7729 133.103 79.9759L133.112 79.979ZM129.563 80.9939C129.672 81.072 129.8 81.0626 129.944 80.9628C130.088 80.8628 130.225 80.7191 130.357 80.5349C130.488 80.3506 130.601 80.1665 130.692 79.979C130.782 79.7948 130.832 79.6574 130.841 79.5668C130.573 79.4232 130.341 79.3982 130.15 79.4919C129.956 79.5855 129.803 79.7417 129.69 79.9572C129.578 80.1727 129.509 80.3819 129.487 80.5849C129.465 80.7878 129.494 80.9252 129.566 80.9939H129.563Z" fill="black"/>
<path d="M137.745 80.2228C137.839 79.9199 137.908 79.7731 137.951 79.7856C137.992 79.7981 137.992 79.8886 137.951 80.0542C137.911 80.2196 137.858 80.3914 137.792 80.5694C137.729 80.7474 137.604 80.9067 137.419 81.0472C137.27 81.1627 137.098 81.2377 136.897 81.2689C136.606 81.3001 136.369 81.2689 136.187 81.1721C136.006 81.0784 135.862 80.9441 135.762 80.7724C135.662 80.6006 135.59 80.4133 135.549 80.2134C135.465 80.4351 135.359 80.6537 135.227 80.8723C135.096 81.0909 134.933 81.2627 134.739 81.3969C134.542 81.5281 134.307 81.5781 134.036 81.5469C133.748 81.5 133.525 81.3844 133.369 81.2002C133.21 81.0191 133.094 80.8067 133.019 80.5632C132.944 80.3195 132.897 80.0854 132.875 79.8574C132.834 79.4826 132.803 78.9893 132.781 78.3803C132.76 77.7713 132.765 77.1249 132.8 76.4473C132.834 75.7696 132.916 75.1356 133.041 74.5517C133.166 73.9677 133.357 73.5149 133.613 73.1933C133.751 73.0403 133.916 72.9622 134.11 72.959C134.304 72.959 134.474 73.0277 134.62 73.1745C134.811 73.3994 134.921 73.646 134.949 73.9209C135.005 74.3612 134.986 74.8359 134.886 75.348C134.786 75.8601 134.649 76.3661 134.467 76.8626C134.285 77.3623 134.098 77.8151 133.904 78.2242C133.71 78.6333 133.544 78.9611 133.407 79.2048C133.413 79.3765 133.432 79.5888 133.47 79.8418C133.506 80.0916 133.566 80.3383 133.647 80.5788C133.729 80.8192 133.841 81.0097 133.983 81.1565C134.148 81.2939 134.326 81.2939 134.517 81.1596C134.708 81.0253 134.889 80.8254 135.062 80.5569C135.234 80.2915 135.371 80.026 135.471 79.7668C135.434 79.4389 135.405 79.008 135.386 78.4739C135.368 77.94 135.378 77.381 135.412 76.7908C135.446 76.2005 135.522 75.6541 135.633 75.1481C135.746 74.6422 135.915 74.2488 136.137 73.9677C136.263 73.8366 136.409 73.7679 136.578 73.7647C136.747 73.7647 136.897 73.8241 137.032 73.9521C137.204 74.1457 137.301 74.3612 137.328 74.6017C137.392 75.1263 137.338 75.6884 137.172 76.2943C137.007 76.9 136.8 77.4684 136.563 77.9993C136.321 78.5302 136.122 78.9393 135.956 79.2235C135.962 79.3765 135.981 79.5639 136.012 79.7887C136.043 80.0135 136.097 80.2259 136.172 80.432C136.244 80.6381 136.344 80.8067 136.472 80.9348C136.738 81.1096 136.992 81.1096 137.239 80.9348C137.486 80.7598 137.654 80.5225 137.752 80.2197L137.745 80.2228ZM133.504 76.5596C133.488 76.7002 133.475 76.9094 133.463 77.1873C133.451 77.4653 133.438 77.7495 133.426 78.0461C133.41 78.3616 133.398 78.6145 133.385 78.7988C133.516 78.5646 133.673 78.2304 133.848 77.7901C134.023 77.3497 134.182 76.8313 134.33 76.2349C134.474 75.6384 134.567 74.992 134.608 74.2925C134.583 73.8866 134.517 73.6117 134.417 73.465C134.317 73.3182 134.208 73.3087 134.089 73.4274C133.97 73.5493 133.876 73.799 133.804 74.1832C133.695 74.8172 133.611 75.4542 133.551 76.0913C133.535 76.2443 133.516 76.4004 133.501 76.5596H133.504ZM136.037 76.9156C136.028 77.0375 136.016 77.2186 136.002 77.4622C135.99 77.7057 135.978 77.9525 135.965 78.2054C135.956 78.4864 135.947 78.7082 135.937 78.8706C136.053 78.6645 136.187 78.3678 136.344 77.9836C136.5 77.5996 136.644 77.1468 136.772 76.6252C136.903 76.1069 136.985 75.5416 137.023 74.9358C137 74.5766 136.944 74.3331 136.853 74.205C136.762 74.077 136.666 74.0676 136.56 74.1739C136.453 74.28 136.369 74.5017 136.306 74.839C136.206 75.3886 136.131 75.9445 136.084 76.5034C136.069 76.6408 136.053 76.7782 136.037 76.9188V76.9156Z" fill="black"/>
<path d="M141.883 79.979C141.816 80.182 141.686 80.4131 141.488 80.6723C141.291 80.9315 141.047 81.1002 140.753 81.1751C140.459 81.2501 140.206 81.2407 139.993 81.1438C139.78 81.0502 139.662 80.7942 139.639 80.3819C139.396 80.8534 139.164 81.1533 138.946 81.2844C138.727 81.4155 138.495 81.4655 138.257 81.4343C137.989 81.3906 137.807 81.2875 137.71 81.122C137.616 80.9565 137.582 80.766 137.613 80.5474C137.644 80.3288 137.71 80.1227 137.81 79.9228C137.888 79.7729 137.998 79.6355 138.138 79.5075C138.279 79.3795 138.426 79.2795 138.579 79.2077C138.77 79.1109 138.961 79.0672 139.152 79.0703C139.346 79.0765 139.549 79.139 139.768 79.2608C139.775 79.267 139.775 79.2608 139.775 79.2452C139.775 79.2233 139.78 79.1952 139.79 79.164C139.799 79.1327 139.818 79.1047 139.847 79.0859C139.919 79.0329 140.003 79.0078 140.102 79.0078C140.203 79.0078 140.278 79.0578 140.331 79.1546C140.341 79.2826 140.327 79.4451 140.291 79.6418C140.212 80.0727 140.212 80.385 140.291 80.5755C140.368 80.766 140.509 80.8534 140.71 80.8409C140.91 80.8285 141.169 80.6286 141.492 80.2476C141.814 79.8666 141.938 79.7729 141.873 79.9759L141.883 79.979ZM138.329 80.9939C138.439 81.072 138.567 81.0626 138.711 80.9628C138.855 80.8628 138.992 80.7191 139.123 80.5349C139.255 80.3506 139.368 80.1665 139.459 79.979C139.549 79.7948 139.599 79.6574 139.608 79.5668C139.339 79.4232 139.108 79.3982 138.917 79.4919C138.723 79.5855 138.57 79.7417 138.457 79.9572C138.344 80.1727 138.276 80.3819 138.255 80.5849C138.232 80.7878 138.26 80.9252 138.332 80.9939H138.329Z" fill="black"/>
<path d="M144.272 80.0986C144.403 79.9706 144.463 79.9394 144.444 80.0018C144.425 80.0643 144.353 80.1798 144.225 80.3485C144.097 80.5171 143.938 80.6951 143.749 80.8918C143.562 81.0886 143.358 81.2541 143.146 81.3978C142.933 81.5414 142.733 81.6195 142.542 81.6288C142.308 81.6288 142.123 81.5601 141.982 81.4227C141.842 81.2853 141.742 81.101 141.682 80.8762C141.622 80.6483 141.598 80.4047 141.607 80.1393C141.62 79.8426 141.629 79.5491 141.638 79.2523C141.645 79.1024 141.648 78.9588 141.654 78.8151C141.667 78.5778 141.676 78.3404 141.679 78.1031C141.686 78.0282 141.673 77.9657 141.641 77.9158C141.613 77.8658 141.56 77.8377 141.485 77.8314C141.401 77.8252 141.294 77.8252 141.166 77.8252H140.881C140.772 77.8127 140.697 77.7847 140.66 77.7378C140.622 77.6909 140.65 77.6441 140.747 77.5941C140.816 77.5692 140.894 77.5535 140.991 77.5504C141.085 77.5504 141.178 77.5504 141.269 77.5535C141.325 77.5597 141.379 77.5597 141.42 77.5597C141.56 77.5597 141.648 77.5379 141.679 77.4942C141.71 77.4505 141.729 77.3631 141.735 77.2288C141.744 77.0882 141.751 76.9477 141.758 76.8072C141.763 76.7322 141.766 76.6573 141.776 76.5855C141.776 76.4761 141.804 76.3762 141.864 76.2857C141.926 76.2013 142.005 76.1701 142.101 76.1888C142.186 76.2107 142.233 76.2638 142.242 76.3481C142.248 76.4886 142.252 76.6291 142.252 76.7697C142.257 76.8477 142.257 76.929 142.252 77.0071C142.252 77.0914 142.252 77.1788 142.257 77.2693C142.252 77.3942 142.267 77.4723 142.301 77.5067C142.336 77.5379 142.417 77.5566 142.552 77.5566H143.193C143.29 77.5566 143.574 77.5504 144.05 77.5379C144.525 77.5254 144.782 77.5628 144.82 77.6535C144.857 77.744 144.557 77.7971 143.916 77.8096C143.528 77.8314 143.228 77.8408 143.018 77.8408C142.877 77.8345 142.749 77.8345 142.636 77.8345C142.445 77.8345 142.329 77.869 142.286 77.9345C142.242 78.0001 142.221 78.1344 142.226 78.3311C142.221 78.5029 142.214 78.709 142.202 78.9494C142.17 79.446 142.154 79.9518 142.154 80.4703C142.167 80.8263 142.229 81.0574 142.345 81.1604C142.461 81.2666 142.611 81.2853 142.796 81.2197C142.981 81.1541 143.18 81.0355 143.396 80.8669C143.612 80.6983 143.825 80.5171 144.037 80.3203C144.084 80.2611 144.137 80.2048 144.204 80.1517C144.225 80.133 144.244 80.1142 144.266 80.0986H144.272Z" fill="black"/>
<path d="M146.096 80.3701C146.021 80.5231 145.896 80.6948 145.715 80.8822C145.533 81.0695 145.333 81.1882 145.104 81.2382C144.876 81.2882 144.661 81.21 144.454 81.0039C144.376 80.9134 144.317 80.8072 144.279 80.6885C144.241 80.5698 144.229 80.4512 144.238 80.3357V80.217C144.238 80.0952 144.245 79.9516 144.254 79.7922C144.263 79.6299 144.289 79.4862 144.325 79.3551C144.363 79.2239 144.423 79.1489 144.501 79.1209C144.73 79.0646 144.855 79.1427 144.874 79.3582C144.874 79.4269 144.874 79.4987 144.867 79.5674C144.86 79.6049 144.86 79.6361 144.86 79.6674C144.855 79.7673 144.852 79.8704 144.845 79.9703C144.845 80.0484 144.842 80.1295 144.836 80.2076C144.829 80.5542 144.908 80.7635 145.07 80.8291C145.229 80.8946 145.414 80.8259 145.62 80.6198C145.828 80.4137 145.962 80.242 146.027 80.1046C146.09 79.9672 146.137 79.9391 146.165 80.0172C146.193 80.0952 146.171 80.2138 146.096 80.3669V80.3701ZM144.826 78.3808C144.795 78.4058 144.757 78.4245 144.714 78.4307C144.67 78.4369 144.629 78.4338 144.595 78.4213C144.57 78.3995 144.551 78.3714 144.545 78.3371C144.538 78.3027 144.536 78.2621 144.536 78.2121C144.536 78.2028 144.536 78.1934 144.541 78.184C144.548 78.1403 144.557 78.0965 144.573 78.0529C144.62 77.9373 144.72 77.8843 144.874 77.8936C144.927 77.8999 144.967 77.9217 144.998 77.9592C145.03 77.9966 145.036 78.0373 145.017 78.0841C144.98 78.2028 144.917 78.2995 144.826 78.3808Z" fill="black"/>
<path d="M149.07 79.1978C149.142 79.1415 149.224 79.1103 149.321 79.1103C149.374 79.1103 149.424 79.1259 149.471 79.154C149.518 79.1822 149.545 79.2445 149.559 79.3352C149.564 79.3664 149.564 79.3976 149.564 79.4288C149.571 79.4444 149.571 79.4601 149.571 79.4757C149.58 79.5506 149.586 79.6131 149.586 79.6661C149.586 79.7443 149.593 79.8004 149.602 79.8286C149.612 79.8567 149.636 79.8566 149.671 79.8255C149.705 79.7942 149.761 79.7192 149.843 79.6038C149.981 79.3914 150.149 79.2133 150.353 79.0666C150.537 78.9354 150.741 78.8792 150.962 78.9011C151.154 78.9198 151.279 79.0197 151.345 79.2009C151.369 79.2914 151.385 79.3851 151.385 79.4757C151.385 79.5662 151.379 79.6599 151.367 79.7536C151.36 79.8504 151.353 79.9472 151.345 80.0503L151.326 80.1439C151.295 80.4875 151.304 80.7185 151.357 80.8341C151.41 80.9497 151.492 80.9902 151.598 80.9497C151.704 80.9091 151.851 80.7436 152.039 80.45C152.223 80.1564 152.333 79.9722 152.37 79.8911C152.408 79.8098 152.432 79.8161 152.455 79.9004C152.477 79.9847 152.414 80.1815 152.276 80.4844C152.139 80.7872 151.964 81.0215 151.757 81.187C151.551 81.3525 151.357 81.4118 151.178 81.3681C151 81.3244 150.872 81.1995 150.794 80.9965C150.715 80.7904 150.694 80.5312 150.725 80.2189C150.725 80.2126 150.725 80.2002 150.731 80.1783C150.737 80.1252 150.744 80.0472 150.76 79.9441C150.772 79.8411 150.782 79.7348 150.787 79.6225C150.794 79.5131 150.787 79.4195 150.778 79.3476C150.768 79.2758 150.731 79.2509 150.678 79.2727C150.55 79.3414 150.425 79.4788 150.306 79.6818C150.184 79.8848 150.075 80.0972 149.977 80.3189C149.878 80.5406 149.809 80.7217 149.768 80.8559C149.753 80.8997 149.737 80.9434 149.722 80.9934C149.699 81.0558 149.674 81.1183 149.65 81.1808C149.58 81.3618 149.458 81.4305 149.286 81.39C149.19 81.3681 149.133 81.3088 149.118 81.212C149.111 81.137 149.111 81.0683 149.111 80.9996C149.111 80.9559 149.111 80.9153 149.105 80.881C149.096 80.4625 149.083 80.0409 149.074 79.6131C149.027 79.7192 148.961 79.8348 148.876 79.9629C148.554 80.3625 148.305 80.6031 148.129 80.678C147.951 80.7561 147.819 80.8028 147.732 80.8248C147.644 80.8466 147.588 80.881 147.56 80.9278C147.535 80.9715 147.504 81.009 147.466 81.0465L147.456 81.0527C147.31 81.2119 147.137 81.3151 146.934 81.365C146.731 81.4149 146.543 81.3994 146.362 81.3182C146.181 81.237 146.052 81.0808 145.971 80.8528C145.915 80.6467 145.908 80.4406 145.955 80.2376C145.996 80.0565 146.061 79.8879 146.152 79.7286C146.262 79.5162 146.406 79.3695 146.584 79.2789C146.763 79.1915 146.962 79.1415 147.185 79.1322C147.516 79.1166 147.725 79.2727 147.81 79.6006C147.863 79.7911 147.876 79.9816 147.85 80.1783C147.845 80.222 147.838 80.2689 147.828 80.3158C147.816 80.3469 147.807 80.3781 147.804 80.4094C147.926 80.4157 148.082 80.3469 148.273 80.2126C148.464 80.0752 148.642 79.8598 148.814 79.5631C148.921 79.3726 149.008 79.2478 149.08 79.1884L149.07 79.1978ZM146.803 81.0902C146.975 81.0121 147.094 80.8779 147.159 80.6874C146.872 80.5062 146.684 80.2471 146.59 79.9098C146.5 80.069 146.444 80.2533 146.428 80.4656C146.409 80.678 146.43 80.8528 146.493 80.9902C146.555 81.1277 146.66 81.162 146.806 81.0933L146.803 81.0902ZM147.288 80.3126C147.334 80.2439 147.366 80.1627 147.375 80.0628C147.385 79.966 147.382 79.866 147.366 79.7692C147.347 79.6725 147.322 79.5943 147.288 79.5413C147.253 79.4851 147.219 79.4695 147.188 79.4913C147.119 79.5475 147.078 79.6318 147.072 79.7411C147.066 79.8504 147.082 79.9566 147.125 80.0659C147.166 80.1752 147.222 80.2564 147.288 80.3158V80.3126Z" fill="black"/>
</svg>
