<svg width="84" height="18" viewBox="0 0 84 18" fill="none" xmlns="http://www.w3.org/2000/svg">
<path d="M8.03981 3.30835C8.28927 2.54059 9.37544 2.54059 9.6249 3.30835L10.5162 6.05151C10.6278 6.39487 10.9477 6.62733 11.3088 6.62733H14.1931C15.0004 6.62733 15.336 7.66035 14.6829 8.13485L12.3494 9.83022C12.0574 10.0424 11.9351 10.4186 12.0467 10.7619L12.938 13.5051C13.1875 14.2728 12.3087 14.9113 11.6556 14.4368L9.32218 12.7414C9.0301 12.5292 8.63461 12.5292 8.34253 12.7414L6.00906 14.4368C5.35597 14.9113 4.47723 14.2728 4.72669 13.5051L5.618 10.7619C5.72956 10.4186 5.60735 10.0424 5.31527 9.83022L2.9818 8.13485C2.3287 7.66035 2.66435 6.62733 3.47162 6.62733H6.35595C6.71697 6.62733 7.03694 6.39487 7.1485 6.05151L8.03981 3.30835Z" fill="#FCB547"/>
<path d="M24.7068 3.30835C24.9563 2.54059 26.0424 2.54059 26.2919 3.30835L27.1832 6.05151C27.2948 6.39487 27.6147 6.62733 27.9757 6.62733H30.8601C31.6674 6.62733 32.003 7.66035 31.3499 8.13485L29.0164 9.83022C28.7244 10.0424 28.6021 10.4186 28.7137 10.7619L29.605 13.5051C29.8545 14.2728 28.9757 14.9113 28.3226 14.4368L25.9892 12.7414C25.6971 12.5292 25.3016 12.5292 25.0095 12.7414L22.6761 14.4368C22.023 14.9113 21.1442 14.2728 21.3937 13.5051L22.285 10.7619C22.3966 10.4186 22.2743 10.0424 21.9823 9.83022L19.6488 8.13485C18.9957 7.66035 19.3313 6.62733 20.1386 6.62733H23.0229C23.384 6.62733 23.7039 6.39487 23.8155 6.05151L24.7068 3.30835Z" fill="#FCB547"/>
<path d="M41.3728 3.30835C41.6223 2.54059 42.7084 2.54059 42.9579 3.30835L43.8492 6.05151C43.9608 6.39487 44.2807 6.62733 44.6418 6.62733H47.5261C48.3334 6.62733 48.669 7.66035 48.0159 8.13485L45.6824 9.83022C45.3904 10.0424 45.2682 10.4186 45.3797 10.7619L46.271 13.5051C46.5205 14.2728 45.6418 14.9113 44.9887 14.4368L42.6552 12.7414C42.3631 12.5292 41.9676 12.5292 41.6755 12.7414L39.3421 14.4368C38.689 14.9113 37.8102 14.2728 38.0597 13.5051L38.951 10.7619C39.0626 10.4186 38.9404 10.0424 38.6483 9.83022L36.3148 8.13485C35.6617 7.66035 35.9974 6.62733 36.8046 6.62733H39.689C40.05 6.62733 40.3699 6.39487 40.4815 6.05151L41.3728 3.30835Z" fill="#FCB547"/>
<path d="M58.0398 3.30835C58.2893 2.54059 59.3754 2.54059 59.6249 3.30835L60.5162 6.05151C60.6278 6.39487 60.9477 6.62733 61.3088 6.62733H64.1931C65.0004 6.62733 65.336 7.66035 64.6829 8.13485L62.3494 9.83022C62.0574 10.0424 61.9351 10.4186 62.0467 10.7619L62.938 13.5051C63.1875 14.2728 62.3087 14.9113 61.6556 14.4368L59.3222 12.7414C59.0301 12.5292 58.6346 12.5292 58.3425 12.7414L56.0091 14.4368C55.356 14.9113 54.4772 14.2728 54.7267 13.5051L55.618 10.7619C55.7296 10.4186 55.6073 10.0424 55.3153 9.83022L52.9818 8.13485C52.3287 7.66035 52.6644 6.62733 53.4716 6.62733H56.356C56.717 6.62733 57.0369 6.39487 57.1485 6.05151L58.0398 3.30835Z" fill="#FCB547"/>
<path d="M74.7058 3.30835C74.9553 2.54059 76.0415 2.54059 76.2909 3.30835L77.1822 6.05151C77.2938 6.39487 77.6138 6.62733 77.9748 6.62733H80.8591C81.6664 6.62733 82.002 7.66035 81.3489 8.13485L79.0155 9.83022C78.7234 10.0424 78.6012 10.4186 78.7127 10.7619L79.604 13.5051C79.8535 14.2728 78.9748 14.9113 78.3217 14.4368L75.9882 12.7414C75.6961 12.5292 75.3006 12.5292 75.0085 12.7414L72.6751 14.4368C72.022 14.9113 71.1432 14.2728 71.3927 13.5051L72.284 10.7619C72.3956 10.4186 72.2734 10.0424 71.9813 9.83022L69.6478 8.13485C68.9947 7.66035 69.3304 6.62733 70.1376 6.62733H73.022C73.383 6.62733 73.703 6.39487 73.8145 6.05151L74.7058 3.30835Z" fill="#FCB547"/>
</svg>
