<svg width="21" height="19" viewBox="0 0 21 19" fill="none" xmlns="http://www.w3.org/2000/svg">
<path d="M15.439 0.369141C16.78 0.369141 18.07 0.899141 19.019 1.85014C19.969 2.79914 20.5 4.07914 20.5 5.41914V13.3191C20.5 16.1091 18.23 18.3691 15.439 18.3691H5.56C2.769 18.3691 0.5 16.1091 0.5 13.3191V5.41914C0.5 2.62914 2.759 0.369141 5.56 0.369141H15.439ZM16.57 5.56914C16.36 5.55814 16.16 5.62914 16.009 5.76914L11.5 9.36914C10.92 9.85014 10.089 9.85014 9.5 9.36914L5 5.76914C4.689 5.53914 4.259 5.56914 4 5.83914C3.73 6.10914 3.7 6.53914 3.929 6.83914L4.06 6.96914L8.61 10.5191C9.17 10.9591 9.849 11.1991 10.56 11.1991C11.269 11.1991 11.96 10.9591 12.519 10.5191L17.03 6.90914L17.11 6.82914C17.349 6.53914 17.349 6.11914 17.099 5.82914C16.96 5.68014 16.769 5.58914 16.57 5.56914Z" fill="#FF0000"/>
</svg>
