<svg width="27" height="27" viewBox="0 0 27 27" fill="none" xmlns="http://www.w3.org/2000/svg">
<path d="M26.2462 11.6889L24.4329 9.58223C24.0862 9.18223 23.8062 8.43556 23.8062 7.90223V5.63556C23.8062 4.22223 22.6462 3.06223 21.2328 3.06223H18.9662C18.4462 3.06223 17.6862 2.78223 17.2862 2.43556L15.1795 0.622227C14.2595 -0.16444 12.7529 -0.16444 11.8195 0.622227L9.72618 2.44889C9.32618 2.78223 8.56618 3.06223 8.04618 3.06223H5.73952C4.32618 3.06223 3.16618 4.22223 3.16618 5.63556V7.91556C3.16618 8.43556 2.88618 9.18223 2.55285 9.58223L0.752852 11.7022C-0.0204817 12.6222 -0.0204817 14.1156 0.752852 15.0356L2.55285 17.1556C2.88618 17.5556 3.16618 18.3022 3.16618 18.8222V21.1022C3.16618 22.5156 4.32618 23.6756 5.73952 23.6756H8.04618C8.56618 23.6756 9.32618 23.9556 9.72618 24.3022L11.8329 26.1156C12.7529 26.9022 14.2595 26.9022 15.1929 26.1156L17.2995 24.3022C17.6995 23.9556 18.4462 23.6756 18.9795 23.6756H21.2462C22.6595 23.6756 23.8195 22.5156 23.8195 21.1022V18.8356C23.8195 18.3156 24.0995 17.5556 24.4462 17.1556L26.2595 15.0489C27.0329 14.1289 27.0329 12.6089 26.2462 11.6889ZM19.0462 10.8489L12.6062 17.2889C12.4195 17.4756 12.1662 17.5822 11.8995 17.5822C11.6329 17.5822 11.3795 17.4756 11.1929 17.2889L7.96618 14.0622C7.57952 13.6756 7.57952 13.0356 7.96618 12.6489C8.35285 12.2622 8.99285 12.2622 9.37952 12.6489L11.8995 15.1689L17.6329 9.43556C18.0195 9.04889 18.6595 9.04889 19.0462 9.43556C19.4328 9.82223 19.4328 10.4622 19.0462 10.8489Z" fill="#FF0000"/>
</svg>
