<svg width="121" height="25" viewBox="0 0 121 25" fill="none" xmlns="http://www.w3.org/2000/svg">
<path d="M11.5489 3.29619C11.8483 2.37488 13.1517 2.37488 13.4511 3.29619L14.9697 7.96995C15.1035 8.38198 15.4875 8.66094 15.9207 8.66094H20.835C21.8037 8.66094 22.2065 9.90055 21.4228 10.47L17.447 13.3585C17.0966 13.6131 16.9499 14.0645 17.0838 14.4765L18.6024 19.1503C18.9017 20.0716 17.8472 20.8377 17.0635 20.2683L13.0878 17.3798C12.7373 17.1251 12.2627 17.1251 11.9122 17.3798L7.93648 20.2683C7.15276 20.8377 6.09828 20.0716 6.39763 19.1503L7.91623 14.4765C8.05011 14.0645 7.90345 13.6131 7.55296 13.3585L3.57722 10.47C2.79351 9.90055 3.19628 8.66094 4.16501 8.66094H9.07929C9.51252 8.66094 9.89647 8.38198 10.0303 7.96995L11.5489 3.29619Z" fill="#FCB547"/>
<path d="M35.5489 3.29619C35.8483 2.37488 37.1517 2.37488 37.4511 3.29619L38.9697 7.96995C39.1035 8.38198 39.4875 8.66094 39.9207 8.66094H44.835C45.8037 8.66094 46.2065 9.90055 45.4228 10.47L41.447 13.3585C41.0966 13.6131 40.9499 14.0645 41.0838 14.4765L42.6024 19.1503C42.9017 20.0716 41.8472 20.8377 41.0635 20.2683L37.0878 17.3798C36.7373 17.1251 36.2627 17.1251 35.9122 17.3798L31.9365 20.2683C31.1528 20.8377 30.0983 20.0716 30.3976 19.1503L31.9162 14.4765C32.0501 14.0645 31.9034 13.6131 31.553 13.3585L27.5772 10.47C26.7935 9.90055 27.1963 8.66094 28.165 8.66094H33.0793C33.5125 8.66094 33.8965 8.38198 34.0303 7.96995L35.5489 3.29619Z" fill="#FCB547"/>
<path d="M59.5489 3.29619C59.8483 2.37488 61.1517 2.37488 61.4511 3.29619L62.9697 7.96995C63.1035 8.38198 63.4875 8.66094 63.9207 8.66094H68.835C69.8037 8.66094 70.2065 9.90055 69.4228 10.47L65.447 13.3585C65.0966 13.6131 64.9499 14.0645 65.0838 14.4765L66.6024 19.1503C66.9017 20.0716 65.8472 20.8377 65.0635 20.2683L61.0878 17.3798C60.7373 17.1251 60.2627 17.1251 59.9122 17.3798L55.9365 20.2683C55.1528 20.8377 54.0983 20.0716 54.3976 19.1503L55.9162 14.4765C56.0501 14.0645 55.9034 13.6131 55.553 13.3585L51.5772 10.47C50.7935 9.90055 51.1963 8.66094 52.165 8.66094H57.0793C57.5125 8.66094 57.8965 8.38198 58.0303 7.96995L59.5489 3.29619Z" fill="#FCB547"/>
<path d="M83.5489 3.29619C83.8483 2.37488 85.1517 2.37488 85.4511 3.29619L86.9697 7.96995C87.1035 8.38198 87.4875 8.66094 87.9207 8.66094H92.835C93.8037 8.66094 94.2065 9.90055 93.4228 10.47L89.447 13.3585C89.0966 13.6131 88.9499 14.0645 89.0838 14.4765L90.6024 19.1503C90.9017 20.0716 89.8472 20.8377 89.0635 20.2683L85.0878 17.3798C84.7373 17.1251 84.2627 17.1251 83.9122 17.3798L79.9365 20.2683C79.1528 20.8377 78.0983 20.0716 78.3976 19.1503L79.9162 14.4765C80.0501 14.0645 79.9034 13.6131 79.553 13.3585L75.5772 10.47C74.7935 9.90055 75.1963 8.66094 76.165 8.66094H81.0793C81.5125 8.66094 81.8965 8.38198 82.0303 7.96995L83.5489 3.29619Z" fill="#FCB547"/>
<path d="M107.549 3.29619C107.848 2.37488 109.152 2.37488 109.451 3.29619L110.97 7.96995C111.104 8.38198 111.487 8.66094 111.921 8.66094H116.835C117.804 8.66094 118.206 9.90055 117.423 10.47L113.447 13.3585C113.097 13.6131 112.95 14.0645 113.084 14.4765L114.602 19.1503C114.902 20.0716 113.847 20.8377 113.064 20.2683L109.088 17.3798C108.737 17.1251 108.263 17.1251 107.912 17.3798L103.936 20.2683C103.153 20.8377 102.098 20.0716 102.398 19.1503L103.916 14.4765C104.05 14.0645 103.903 13.6131 103.553 13.3585L99.5772 10.47C98.7935 9.90055 99.1963 8.66094 100.165 8.66094H105.079C105.513 8.66094 105.896 8.38198 106.03 7.96995L107.549 3.29619Z" fill="#FCB547"/>
</svg>
